<?xml version="1.0" encoding="UTF-8"?>
<svg version="1.1" xmlns="http://www.w3.org/2000/svg" width="1080" height="1080">
<path d="M0 0 C356.4 0 712.8 0 1080 0 C1080 356.4 1080 712.8 1080 1080 C723.6 1080 367.2 1080 0 1080 C0 723.6 0 367.2 0 0 Z " fill="#000000" transform="translate(0,0)"/>
<path d="M0 0 C0.81984375 0.62648438 1.6396875 1.25296875 2.484375 1.8984375 C3.26296875 2.48367188 4.0415625 3.06890625 4.84375 3.671875 C11.72548508 9.29591367 19.03177568 17.46415968 21.359375 26.171875 C21.400625 27.07164062 21.441875 27.97140625 21.484375 28.8984375 C20.494375 29.8884375 20.494375 29.8884375 19.484375 30.8984375 C17.140625 30.8828125 17.140625 30.8828125 14.484375 29.8984375 C12.203125 27.3515625 12.203125 27.3515625 9.984375 24.1484375 C7.08026804 19.99679164 4.15743885 16.39319728 0.484375 12.8984375 C-0.05445313 12.3621875 -0.59328125 11.8259375 -1.1484375 11.2734375 C-9.96063695 3.1532956 -20.10293149 0.51214036 -31.78515625 0.62109375 C-48.24387436 1.8447262 -62.86298741 12.62037303 -73.828125 24.2734375 C-84.93825336 37.36021447 -89.34300862 52.99011063 -88.515625 69.8984375 C-87.0079222 83.73495056 -81.38069562 100.56126744 -70.515625 109.8984375 C-62.38580059 115.44534894 -56.07488279 115.86308303 -46.62109375 114.22265625 C-28.8022191 110.40749136 -13.49126832 99.18382648 0.484375 87.8984375 C1.22300781 87.31191406 1.96164062 86.72539063 2.72265625 86.12109375 C6.42875515 83.11740285 6.42875515 83.11740285 8.484375 78.8984375 C3.204375 78.8984375 -2.075625 78.8984375 -7.515625 78.8984375 C-7.515625 78.2384375 -7.515625 77.5784375 -7.515625 76.8984375 C-23.95734612 75.75891227 -40.0739041 75.72402886 -56.515625 76.8984375 C-56.845625 70.6284375 -57.175625 64.3584375 -57.515625 57.8984375 C-58.175625 57.8984375 -58.835625 57.8984375 -59.515625 57.8984375 C-61.03293677 56.05664039 -62.33866466 54.10438788 -63.6875 52.13671875 C-66.02156094 49.2789903 -68.63170324 47.19832483 -71.515625 44.8984375 C-65.65625 34.64453125 -65.65625 34.64453125 -64.57299805 32.77416992 C-63.87314563 31.53266308 -63.20194333 30.2745265 -62.56176758 29.0012207 C-60.27579379 24.57343364 -58.07647054 22.52954046 -53.703125 20.2109375 C-52.64351562 19.63085938 -51.58390625 19.05078125 -50.4921875 18.453125 C-48.78043749 17.55906134 -47.06756329 16.66712766 -45.3515625 15.78125 C-42.20698717 14.10506668 -40.04327716 12.50607353 -37.890625 9.7109375 C-35.515625 6.8984375 -35.515625 6.8984375 -33.10546875 6.02734375 C-30.515625 5.8984375 -30.515625 5.8984375 -28.55859375 7.15625 C-27.94628906 7.77242187 -27.33398438 8.38859375 -26.703125 9.0234375 C-22.20513969 13.26919933 -17.46562165 16.34556659 -12 19.22265625 C-5.46646509 22.79262667 -2.07571986 26.40353357 1.484375 32.8984375 C2.03222656 33.87296875 2.58007812 34.8475 3.14453125 35.8515625 C4.98278799 39.17172361 6.78708663 42.50386076 8.484375 45.8984375 C7.88109375 46.34574219 7.2778125 46.79304687 6.65625 47.25390625 C2.33798779 50.52046266 -1.22642825 53.55669779 -4.515625 57.8984375 C-5.175625 57.8984375 -5.835625 57.8984375 -6.515625 57.8984375 C-6.515625 63.5084375 -6.515625 69.1184375 -6.515625 74.8984375 C-5.525625 73.9084375 -4.535625 72.9184375 -3.515625 71.8984375 C0.21398573 70.40146071 4.27748626 70.78731788 8.234375 70.8359375 C8.93175781 70.84044922 9.62914062 70.84496094 10.34765625 70.84960938 C12.05993303 70.8613373 13.77216533 70.87927097 15.484375 70.8984375 C15.71898437 70.20105469 15.95359375 69.50367188 16.1953125 68.78515625 C17.72203646 65.36621986 19.79509134 62.61867178 22.109375 59.7109375 C22.55595459 59.14141357 23.00253418 58.57188965 23.46264648 57.98510742 C24.37094391 56.82904835 25.28197242 55.67512952 26.19580078 54.5234375 C27.33949048 53.08114902 28.47321652 51.63097213 29.60546875 50.1796875 C45.69337659 29.72182482 45.69337659 29.72182482 52.484375 25.8984375 C55.07421875 26.1875 55.07421875 26.1875 57.484375 26.8984375 C58.6290625 27.176875 58.6290625 27.176875 59.796875 27.4609375 C60.6321875 27.6775 60.6321875 27.6775 61.484375 27.8984375 C62.234375 29.5234375 62.234375 29.5234375 62.484375 31.8984375 C61.89011719 32.77886719 61.29585937 33.65929687 60.68359375 34.56640625 C58.34916194 38.10329849 56.89747323 41.60559563 55.546875 45.5859375 C55.29454102 46.31707764 55.04220703 47.04821777 54.78222656 47.80151367 C51.88961522 56.37863255 49.5666446 65.09299572 47.484375 73.8984375 C47.23558594 74.93097656 46.98679687 75.96351563 46.73046875 77.02734375 C44.73752802 86.82480764 45.30263044 96.95002 45.484375 106.8984375 C49.3480169 107.9671293 49.3480169 107.9671293 52.984375 106.5234375 C55.78813295 103.57949165 57.45797608 100.63217764 59.2734375 97.01953125 C60.50496949 94.86236392 61.50966676 93.40595867 63.484375 91.8984375 C64.804375 91.8984375 66.124375 91.8984375 67.484375 91.8984375 C67.855625 91.08439453 67.855625 91.08439453 68.234375 90.25390625 C69.75570812 87.38714415 71.60375429 84.85556037 73.484375 82.2109375 C77.01373213 77.00609133 78.49259376 73.04748118 79.484375 66.8984375 C80.144375 66.2384375 80.804375 65.5784375 81.484375 64.8984375 C84.109375 65.2734375 84.109375 65.2734375 86.484375 65.8984375 C86.49855469 66.60226562 86.51273438 67.30609375 86.52734375 68.03125 C86.82252899 74.14238231 87.78193626 79.13520185 90.046875 84.8359375 C92.70425943 91.68557495 93.02820419 97.6232115 92.484375 104.8984375 C100.38324122 101.02644425 103.64846152 96.60427982 106.546875 88.3359375 C106.86914062 87.39363281 107.19140625 86.45132813 107.5234375 85.48046875 C109.56403695 79.99739461 113.00228344 75.61529392 117.484375 71.8984375 C120.234375 71.5234375 120.234375 71.5234375 122.484375 71.8984375 C123.484375 72.8984375 123.484375 72.8984375 123.484375 75.7734375 C122.74786179 80.62049068 119.8685614 84.19326063 117.20703125 88.19921875 C113.16921618 94.52604463 111.62852053 100.37679339 112.484375 107.8984375 C113.615625 109.2296875 113.615625 109.2296875 116.546875 109.3359375 C122.01752704 108.72808727 124.84026589 107.01027709 128.484375 102.8984375 C130.37996236 99.87547451 131.95804832 96.69526651 133.55883789 93.50952148 C138.48944952 83.75305115 145.61942832 76.83091084 155.484375 71.8984375 C162.02121809 71.38958145 167.88315332 71.06602267 173.484375 74.8984375 C175.484375 76.8984375 175.484375 76.8984375 175.796875 80.2734375 C175.45713734 84.21439437 174.8078899 84.92433843 172.484375 87.8984375 C172.34 88.9915625 172.195625 90.0846875 172.046875 91.2109375 C171.53398399 94.57322303 171.1552753 95.70136361 169.421875 98.3984375 C167.21070082 101.91875452 167.14487735 104.73959126 167.484375 108.8984375 C169.7342434 109.75672011 169.7342434 109.75672011 172.484375 109.8984375 C180.0716695 105.18008873 186.01246349 97.88937558 188.15234375 89.1796875 C188.48317262 87.44843264 188.77884183 85.7098188 189.02734375 83.96484375 C189.484375 81.8984375 189.484375 81.8984375 191.484375 79.8984375 C195.046875 79.7109375 195.046875 79.7109375 198.484375 79.8984375 C199.484375 80.8984375 199.484375 80.8984375 199.58203125 83.18359375 C199.56462891 84.55837891 199.56462891 84.55837891 199.546875 85.9609375 C199.53785156 86.88003906 199.52882813 87.79914063 199.51953125 88.74609375 C199.50212891 89.81150391 199.50212891 89.81150391 199.484375 90.8984375 C200.14824219 90.21136719 200.81210937 89.52429688 201.49609375 88.81640625 C202.37910156 87.91535156 203.26210938 87.01429688 204.171875 86.0859375 C205.04199219 85.19261719 205.91210938 84.29929687 206.80859375 83.37890625 C211.85292878 78.70277085 215.32304627 77.33690386 222.10546875 77.5390625 C225.49890683 78.05170011 227.23413086 79.35783928 229.484375 81.8984375 C231.82240624 88.91253122 230.59860955 94.34257943 227.375 100.8125 C226.19686753 103.57181025 226.18095879 105.94012948 226.484375 108.8984375 C229.38202416 109.01917288 230.84872632 108.99332163 233.484375 107.8984375 C238.18206663 103.32933232 241.94191467 97.93678078 244.484375 91.8984375 C245.474375 91.8984375 246.464375 91.8984375 247.484375 91.8984375 C246.91114128 96.10979459 245.47735883 98.91138102 243.171875 102.4609375 C242.57761719 103.39035156 241.98335937 104.31976562 241.37109375 105.27734375 C239.57280696 107.77558482 237.79817265 109.87088285 235.484375 111.8984375 C234.824375 111.8984375 234.164375 111.8984375 233.484375 111.8984375 C233.154375 112.8884375 232.824375 113.8784375 232.484375 114.8984375 C223.00154249 115.79523777 223.00154249 115.79523777 219.640625 113.80859375 C217.21309848 111.14819405 216.48809178 108.92817173 216.046875 105.3984375 C216.484375 101.8984375 216.484375 101.8984375 217.484375 99.0234375 C218.79705808 94.92130287 218.65512663 91.16722828 218.484375 86.8984375 C214.51825332 86.12245717 212.54411735 86.20821057 209.109375 88.4453125 C201.4867695 94.97216846 195.73152935 102.97906136 190.91796875 111.75390625 C190.44488281 112.46160156 189.97179687 113.16929687 189.484375 113.8984375 C186.484375 114.4609375 186.484375 114.4609375 183.484375 113.8984375 C181.609375 111.8984375 181.609375 111.8984375 180.484375 109.8984375 C179.865625 110.3934375 179.246875 110.8884375 178.609375 111.3984375 C176.484375 112.8984375 176.484375 112.8984375 174.484375 112.8984375 C174.154375 113.8884375 173.824375 114.8784375 173.484375 115.8984375 C169.38691153 116.36895962 165.55989455 116.62108503 161.484375 115.8984375 C159.46096093 113.93946337 158.49753895 112.20689654 157.3515625 109.6484375 C157.06539062 109.0709375 156.77921875 108.4934375 156.484375 107.8984375 C155.824375 107.8984375 155.164375 107.8984375 154.484375 107.8984375 C153.1164397 109.36333861 153.1164397 109.36333861 151.734375 111.2109375 C148.49178643 115.08011323 145.58290821 117.36400057 140.46875 118.24609375 C138.359375 118.3984375 138.359375 118.3984375 134.484375 117.8984375 C131.57637717 115.3539394 130.57735443 113.94445613 130.234375 110.0859375 C130.316875 109.3640625 130.399375 108.6421875 130.484375 107.8984375 C130.00226563 108.259375 129.52015625 108.6203125 129.0234375 108.9921875 C128.39179688 109.45625 127.76015625 109.9203125 127.109375 110.3984375 C126.48289062 110.8625 125.85640625 111.3265625 125.2109375 111.8046875 C123.484375 112.8984375 123.484375 112.8984375 121.484375 112.8984375 C121.154375 113.8884375 120.824375 114.8784375 120.484375 115.8984375 C110.93007016 116.35021724 110.93007016 116.35021724 106.484375 114.9609375 C103.43351252 111.81473557 102.56191736 108.07719932 101.484375 103.8984375 C100.948125 104.3521875 100.411875 104.8059375 99.859375 105.2734375 C97.484375 106.8984375 97.484375 106.8984375 94.484375 107.7109375 C90.57302339 109.25918085 89.74855922 111.43140542 87.484375 114.8984375 C82.09802787 119.04178145 74.98717425 118.72858209 68.484375 117.8984375 C63.48538041 115.52785411 61.4630113 112.4089439 58.484375 107.8984375 C58.03707031 108.30835938 57.58976563 108.71828125 57.12890625 109.140625 C52.49429553 113.27125886 49.20786466 115.56397386 42.921875 116.3359375 C39.484375 115.8984375 39.484375 115.8984375 37.171875 113.7734375 C31.48470905 104.08419182 33.00403969 92.63086851 34.484375 81.8984375 C28.544375 81.5684375 22.604375 81.2384375 16.484375 80.8984375 C15.824375 82.8784375 15.164375 84.8584375 14.484375 86.8984375 C13.824375 87.8884375 13.164375 88.8784375 12.484375 89.8984375 C11.824375 89.8984375 11.164375 89.8984375 10.484375 89.8984375 C10.2884375 90.45402344 10.0925 91.00960937 9.890625 91.58203125 C7.89791331 94.86447023 5.05935176 96.76846882 1.984375 98.9609375 C1.33162598 99.43337891 0.67887695 99.90582031 0.00634766 100.39257812 C-7.30493443 105.59797717 -14.96104064 110.24855069 -22.68725586 114.80737305 C-24.16333244 115.68820977 -25.6152045 116.60953269 -27.05859375 117.54296875 C-35.83291821 122.38349433 -46.1475208 124.36628107 -56.078125 124.4609375 C-56.80281982 124.47535889 -57.52751465 124.48978027 -58.27416992 124.50463867 C-65.82073965 124.36300472 -72.12458638 120.93027684 -77.66015625 115.9140625 C-92.35306243 99.95292652 -98.56711377 79.96433994 -97.828125 58.59765625 C-96.96567329 43.20597346 -90.79660416 29.36734492 -80.515625 17.8984375 C-79.86078125 17.16238281 -79.2059375 16.42632813 -78.53125 15.66796875 C-58.28393836 -5.79861531 -26.25936805 -18.41263381 0 0 Z " fill="#F1B907" transform="translate(290.515625,580.1015625)"/>
<path d="M0 0 C2.66430444 0.74008457 3.5442232 1.47109539 5.25 3.625 C7.2535199 14.33008184 2.17216375 24.48105944 -2.75 33.625 C-3.41 33.625 -4.07 33.625 -4.75 33.625 C-5.00394531 34.346875 -5.25789062 35.06875 -5.51953125 35.8125 C-8.18418897 41.90314621 -12.78680594 47.66993664 -18.5 51.125 C-23.06319055 54.11503582 -24.4670569 58.48617846 -25.75 63.625 C-26.30584975 67.62429188 -26.61136637 71.59076143 -26.75 75.625 C-26.09 75.625 -25.43 75.625 -24.75 75.625 C-24.56824219 74.55185547 -24.56824219 74.55185547 -24.3828125 73.45703125 C-22.23435864 63.84203714 -16.99391124 55.12094083 -8.75 49.625 C-3.57681279 48.93630944 0.84644131 48.78286478 5.375 51.5 C8.83108657 55.41689811 8.57060982 58.67659059 8.55078125 63.74609375 C8.17559182 67.33719258 6.94389977 69.63238173 5.140625 72.69921875 C3.60723683 76.01483441 3.99339828 79.03257598 4.25 82.625 C9.67309486 82.40364919 12.64125634 81.21350023 16.6171875 77.49609375 C21.13777286 72.31580575 23.61024882 65.89440905 26.25 59.625 C31.28400955 48.2896778 31.28400955 48.2896778 36.25 45.625 C39.5625 45.375 39.5625 45.375 42.25 45.625 C43.106601 48.50721041 43.55063531 50.00564605 42.2109375 52.765625 C41.68757812 53.46171875 41.16421875 54.1578125 40.625 54.875 C40.07328125 55.66003906 39.5215625 56.44507813 38.953125 57.25390625 C37.88339821 58.74318185 36.81089298 60.23046973 35.734375 61.71484375 C31.38517213 68.4261137 31.75027049 74.81811455 32.25 82.625 C38.38672245 82.91306805 41.56751758 81.45612198 46.25 77.625 C49.92535445 73.72230404 51.72745901 69.56584898 53.43359375 64.5546875 C55.00728754 60.83504763 57.600197 57.4499015 61.25 55.625 C63.5829866 55.58477609 65.91706666 55.58179753 68.25 55.625 C68.270625 54.75875 68.29125 53.8925 68.3125 53 C69.44668008 48.91695171 70.92717485 47.32589802 74.21875 44.76953125 C77.89622418 42.69741599 80.07202013 42.89551145 84.25 43.625 C88.63482927 45.89571516 88.63482927 45.89571516 90.25 48.625 C92.201556 58.09755258 88.26470755 65.8522033 83.25 73.625 C88.36257218 73.04921517 92.18864688 72.48734941 96.25 69.1875 C98.83908956 65.53923744 99.20714953 61.37337245 99.6953125 57.015625 C100.25 54.625 100.25 54.625 103.25 52.625 C105.58199388 52.54594936 107.91832622 52.53701231 110.25 52.625 C110.58 55.925 110.91 59.225 111.25 62.625 C112.28125 61.5525 113.3125 60.48 114.375 59.375 C118.53761786 55.21238214 123.0935836 50.82368147 129.29296875 50.52734375 C130.00066406 50.53894531 130.70835937 50.55054688 131.4375 50.5625 C132.695625 50.583125 133.95375 50.60375 135.25 50.625 C135.25 51.285 135.25 51.945 135.25 52.625 C135.86875 52.893125 136.4875 53.16125 137.125 53.4375 C139.25 54.625 139.25 54.625 141.25 57.625 C142.2012675 63.88854058 140.73943316 68.920049 138.25 74.625 C137.59 74.625 136.93 74.625 136.25 74.625 C136.58 77.265 136.91 79.905 137.25 82.625 C140.83697577 82.82427643 143.25095064 82.6933099 146.25 80.625 C146.9334744 79.3002038 147.59621066 77.96469464 148.25 76.625 C149.44018351 74.69701043 150.64977163 72.7809108 151.875 70.875 C152.82246094 69.39773438 152.82246094 69.39773438 153.7890625 67.890625 C154.27117187 67.14296875 154.75328125 66.3953125 155.25 65.625 C156.24 65.955 157.23 66.285 158.25 66.625 C156.29016157 71.86963804 153.557095 76.13133156 150.25 80.625 C149.734375 81.33011719 149.21875 82.03523437 148.6875 82.76171875 C146.1817224 85.73130614 144.3860924 87.37162687 140.53515625 88.23046875 C135.8390597 88.46369771 133.04304382 88.11302697 129 85.625 C126.62963396 81.56151536 127.16668117 79.05841403 128.25 74.625 C129.33901223 69.90594701 129.34451688 65.4453609 129.25 60.625 C124.78596464 60.06699558 122.12625288 60.29883838 118.375 62.875 C110.46726528 69.37009085 104.80365364 78.56345807 100.25 87.625 C97.375 87.75 97.375 87.75 94.25 87.625 C93.59 86.965 92.93 86.305 92.25 85.625 C92.28287583 82.89630593 92.81397771 80.3283382 93.25 77.625 C92.26 77.955 91.27 78.285 90.25 78.625 C88.37522169 78.67566968 86.50015618 78.71608245 84.625 78.75 C77.72310524 79.25074206 74.21272631 82.0654952 69.25 86.625 C64.51670367 90.38736375 60.05012382 89.92908416 54.25 89.625 C50.25 82.875 50.25 82.875 50.25 80.625 C49.20199219 81.36556641 49.20199219 81.36556641 48.1328125 82.12109375 C47.22273437 82.76175781 46.31265625 83.40242187 45.375 84.0625 C44.47007812 84.70058594 43.56515625 85.33867188 42.6328125 85.99609375 C37.73081415 89.34713197 33.08361821 89.38261275 27.25 88.625 C23.53655508 85.95131966 22.16691524 84.00373809 21.25 79.625 C20.23679687 80.47384766 20.23679687 80.47384766 19.203125 81.33984375 C18.31109375 82.07332031 17.4190625 82.80679688 16.5 83.5625 C15.17742187 84.65884766 15.17742187 84.65884766 13.828125 85.77734375 C10.14437048 88.41736782 7.20551214 88.78344838 2.75 88.875 C1.9971875 88.90078125 1.244375 88.9265625 0.46875 88.953125 C-2.45212767 88.52116422 -3.72483183 87.77730877 -5.75 85.625 C-6.2109375 82.8828125 -6.2109375 82.8828125 -6.125 79.75 C-6.11210938 78.72132813 -6.09921875 77.69265625 -6.0859375 76.6328125 C-5.7475969 73.60348384 -4.89650753 71.42555989 -3.75 68.625 C-3.47528427 66.22218375 -3.47528427 66.22218375 -3.5625 63.875 C-3.56894531 63.09640625 -3.57539062 62.3178125 -3.58203125 61.515625 C-3.54716843 59.61391238 -3.54716843 59.61391238 -4.75 58.625 C-7.03528995 58.03731617 -7.03528995 58.03731617 -9.75 58.625 C-14.11542441 61.58998751 -16.22092768 65.14425302 -17.83984375 70.13671875 C-19.07690173 73.51871847 -20.64996211 76.71675723 -22.25 79.9375 C-22.54704834 80.54851562 -22.84409668 81.15953125 -23.15014648 81.7890625 C-26.08419998 87.65554352 -26.08419998 87.65554352 -28.75 89.625 C-31.9375 89.8125 -31.9375 89.8125 -34.75 89.625 C-35.97690072 85.10080359 -36.88191623 81.33276045 -36.75 76.625 C-38.84052328 77.67328263 -40.9221773 78.73926338 -43 79.8125 C-44.16015625 80.40417969 -45.3203125 80.99585938 -46.515625 81.60546875 C-49.78590036 83.64741605 -51.51833757 85.52716721 -53.75 88.625 C-57.6670664 91.96602722 -61.2963521 92.08304242 -66.25390625 91.90625 C-71.52417254 91.31241718 -75.22812383 89.51469233 -78.6875 85.5625 C-80.75 82.625 -80.75 82.625 -80.75 80.625 C-81.44867187 81.11871094 -82.14734375 81.61242187 -82.8671875 82.12109375 C-83.77726563 82.76175781 -84.68734375 83.40242187 -85.625 84.0625 C-86.52992188 84.70058594 -87.43484375 85.33867188 -88.3671875 85.99609375 C-93.23333899 89.32262681 -97.95505704 89.55185687 -103.75 88.625 C-106.20359815 86.83439539 -107.14786539 85.27680901 -108.75 82.625 C-111.50649266 84.20013866 -113.96998537 85.80405786 -116.4375 87.8125 C-118.75 89.625 -118.75 89.625 -120.75 89.625 C-120.75 90.285 -120.75 90.945 -120.75 91.625 C-126.84067026 92.04504622 -129.85816881 91.6816405 -134.75 87.625 C-136.79542886 83.53414228 -136.39743724 79.05454979 -135.75 74.625 C-130.64608996 61.47620736 -122.02573942 52.28840621 -109.75 45.625 C-105.68486443 44.26995481 -102.00054768 44.08824142 -97.75 44.625 C-93.9473971 46.6300088 -92.13209159 48.05186262 -89.75 51.625 C-89.5 54.6875 -89.5 54.6875 -89.75 57.625 C-90.41 58.285 -91.07 58.945 -91.75 59.625 C-93.07 59.625 -94.39 59.625 -95.75 59.625 C-95.97786458 57.57421875 -96.20572917 55.5234375 -96.43359375 53.47265625 C-96.56886614 51.61359771 -96.56886614 51.61359771 -97.75 50.625 C-101.88083652 49.73060013 -105.35983025 49.82793809 -109.06640625 51.953125 C-118.63255415 59.87223178 -124.31216304 69.93213378 -125.59375 82.23828125 C-125.6453125 83.02589844 -125.696875 83.81351563 -125.75 84.625 C-119.70116624 83.49725133 -116.8368105 82.44534059 -112.75 77.625 C-111.95142578 76.73941406 -111.95142578 76.73941406 -111.13671875 75.8359375 C-106.75543664 70.95921107 -102.72059785 65.83867256 -98.75 60.625 C-95.78 61.12 -95.78 61.12 -92.75 61.625 C-93.156868 66.60913305 -94.12021703 69.46429526 -96.828125 73.78125 C-98.41767706 76.96035413 -98.50324839 80.1087895 -98.75 83.625 C-91.80320299 82.50855048 -87.37007976 80.01133689 -82.75 74.625 C-82.42 73.59375 -82.09 72.5625 -81.75 71.5 C-80.58732168 68.15729982 -80.22683829 68.14885769 -77.25 66.625 C-70.19153076 62.64329941 -64.42658479 54.35582839 -61.7421875 46.78125 C-61.32565112 44.74484993 -61.02471073 42.68533051 -60.75 40.625 C-59.76 39.635 -59.76 39.635 -58.75 38.625 C-56.125 39 -56.125 39 -53.75 39.625 C-53.74613281 40.50285156 -53.74613281 40.50285156 -53.7421875 41.3984375 C-53.40896424 48.79599383 -51.44990742 55.12783714 -48.83349609 61.98974609 C-46.84757266 67.42306902 -46.48071456 71.83822788 -46.75 77.625 C-45.80125 76.965 -44.8525 76.305 -43.875 75.625 C-40.75 73.625 -40.75 73.625 -38.75 73.625 C-37.35267757 70.24658656 -36.16865235 66.87295052 -35.12109375 63.37109375 C-30.91653019 49.60641477 -26.00639404 36.58674228 -19.75 23.625 C-19.09 23.625 -18.43 23.625 -17.75 23.625 C-17.64945313 22.91085937 -17.54890625 22.19671875 -17.4453125 21.4609375 C-15.57205857 13.82058718 -8.17684458 1.85837377 0 0 Z " fill="#EBEBEB" transform="translate(726.75,605.375)"/>
<path d="M0 0 C2.61511488 1.4264263 3.69589253 2.45846392 5.625 4.625 C9.57682859 8.83093731 14.27410797 11.1153941 19.41943359 13.57080078 C26.74714572 17.17548665 29.65845283 22.80801546 33.4375 29.6875 C33.84033203 30.41130859 34.24316406 31.13511719 34.65820312 31.88085938 C37.48995536 36.97991071 37.48995536 36.97991071 38.75 39.5 C38.14671875 39.94730469 37.5434375 40.39460937 36.921875 40.85546875 C32.60361279 44.12202516 29.03919675 47.15826029 25.75 51.5 C25.09 51.5 24.43 51.5 23.75 51.5 C23.770625 52.77875 23.79125 54.0575 23.8125 55.375 C23.82058755 60.46207017 23.34020789 65.4516147 22.75 70.5 C21.7084375 70.4278125 20.666875 70.355625 19.59375 70.28125 C4.21551454 69.26411827 -10.88120496 69.40222893 -26.25 70.5 C-26.58 64.23 -26.91 57.96 -27.25 51.5 C-27.91 51.5 -28.57 51.5 -29.25 51.5 C-30.76731177 49.65820289 -32.07303966 47.70595038 -33.421875 45.73828125 C-35.75593594 42.8805528 -38.36607824 40.79988733 -41.25 38.5 C-35.390625 28.24609375 -35.390625 28.24609375 -34.30737305 26.37573242 C-33.60752063 25.13422558 -32.93631833 23.876089 -32.29614258 22.6027832 C-30.01016879 18.17499614 -27.81084554 16.13110296 -23.4375 13.8125 C-22.37789062 13.23242188 -21.31828125 12.65234375 -20.2265625 12.0546875 C-18.51481249 11.16062384 -16.80193829 10.26869016 -15.0859375 9.3828125 C-10.63524938 7.01041927 -8.34397112 4.3674639 -5.25 0.5 C-2.25 -0.5 -2.25 -0.5 0 0 Z " fill="#FCC107" transform="translate(260.25,586.5)"/>
<path d="M0 0 C1 1 1 1 1 3.875 C0.26348679 8.72205318 -2.6158136 12.29482313 -5.27734375 16.30078125 C-9.31515882 22.62760713 -10.85585447 28.47835589 -10 36 C-8.86875 37.33125 -8.86875 37.33125 -5.9375 37.4375 C-0.46684796 36.82964977 2.35589089 35.11183959 6 31 C7.89558736 27.97703701 9.47367332 24.79682901 11.07446289 21.61108398 C16.00507452 11.85461365 23.13505332 4.93247334 33 0 C39.53684309 -0.50885605 45.39877832 -0.83241483 51 3 C53 5 53 5 53.3125 8.375 C52.97276234 12.31595687 52.3235149 13.02590093 50 16 C49.855625 17.093125 49.71125 18.18625 49.5625 19.3125 C49.04960899 22.67478553 48.6709003 23.80292611 46.9375 26.5 C44.72632582 30.02031702 44.66050235 32.84115376 45 37 C47.2498684 37.85828261 47.2498684 37.85828261 50 38 C57.5872945 33.28165123 63.52808849 25.99093808 65.66796875 17.28125 C65.99879762 15.54999514 66.29446683 13.8113813 66.54296875 12.06640625 C67 10 67 10 69 8 C72.5625 7.8125 72.5625 7.8125 76 8 C77 9 77 9 77.09765625 11.28515625 C77.08605469 12.20167969 77.07445312 13.11820313 77.0625 14.0625 C77.05347656 14.98160156 77.04445313 15.90070312 77.03515625 16.84765625 C77.02355469 17.55792969 77.01195312 18.26820313 77 19 C77.99580078 17.96939453 77.99580078 17.96939453 79.01171875 16.91796875 C79.89472656 16.01691406 80.77773438 15.11585938 81.6875 14.1875 C82.55761719 13.29417969 83.42773438 12.40085937 84.32421875 11.48046875 C89.36855378 6.80433335 92.83867127 5.43846636 99.62109375 5.640625 C103.01453183 6.15326261 104.74975586 7.45940178 107 10 C109.33803124 17.01409372 108.11423455 22.44414193 104.890625 28.9140625 C103.71249253 31.67337275 103.69658379 34.04169198 104 37 C106.89764916 37.12073538 108.36435132 37.09488413 111 36 C115.69769163 31.43089482 119.45753967 26.03834328 122 20 C122.99 20 123.98 20 125 20 C124.42676628 24.21135709 122.99298383 27.01294352 120.6875 30.5625 C120.09324219 31.49191406 119.49898437 32.42132812 118.88671875 33.37890625 C117.08843196 35.87714732 115.31379765 37.97244535 113 40 C112.34 40 111.68 40 111 40 C110.67 40.99 110.34 41.98 110 43 C100.51716749 43.89680027 100.51716749 43.89680027 97.15625 41.91015625 C94.72872348 39.24975655 94.00371678 37.02973423 93.5625 33.5 C94 30 94 30 95 27.125 C96.31268308 23.02286537 96.17075163 19.26879078 96 15 C92.03387832 14.22401967 90.05974235 14.30977307 86.625 16.546875 C79.0023945 23.07373096 73.24715435 31.08062386 68.43359375 39.85546875 C67.72396484 40.91701172 67.72396484 40.91701172 67 42 C64 42.5625 64 42.5625 61 42 C59.125 40 59.125 40 58 38 C57.38125 38.495 56.7625 38.99 56.125 39.5 C54 41 54 41 52 41 C51.67 41.99 51.34 42.98 51 44 C46.90253653 44.47052212 43.07551955 44.72264753 39 44 C36.97658593 42.04102587 36.01316395 40.30845904 34.8671875 37.75 C34.58101563 37.1725 34.29484375 36.595 34 36 C33.34 36 32.68 36 32 36 C30.6320647 37.46490111 30.6320647 37.46490111 29.25 39.3125 C26.00741143 43.18167573 23.09853321 45.46556307 17.984375 46.34765625 C15.875 46.5 15.875 46.5 12 46 C9.09200217 43.4555019 8.09297943 42.04601863 7.75 38.1875 C7.8325 37.465625 7.915 36.74375 8 36 C7.27683594 36.54140625 7.27683594 36.54140625 6.5390625 37.09375 C5.90742188 37.5578125 5.27578125 38.021875 4.625 38.5 C3.99851562 38.9640625 3.37203125 39.428125 2.7265625 39.90625 C1 41 1 41 -1 41 C-1.33 41.99 -1.66 42.98 -2 44 C-11.55430484 44.45177974 -11.55430484 44.45177974 -16 43.0625 C-19.05086248 39.91629807 -19.92245764 36.17876182 -21 32 C-21.53625 32.515625 -22.0725 33.03125 -22.625 33.5625 C-25 35 -25 35 -28.25 34.6875 C-29.1575 34.460625 -30.065 34.23375 -31 34 C-30.67 33.34 -30.34 32.68 -30 32 C-29.4225 31.87625 -28.845 31.7525 -28.25 31.625 C-24.52880269 30.59133408 -22.00323992 28.59121936 -19.93359375 25.30859375 C-18.04233601 21.63732872 -16.56974888 17.86455461 -15.125 14 C-12.22498265 6.55432052 -8.6806689 -0.44516251 0 0 Z " fill="#ECB607" transform="translate(413,652)"/>
<path d="M0 0 C11.22 0 22.44 0 34 0 C33.875 14.4375 33.875 14.4375 33.81982422 18.93530273 C33.79071198 25.90392723 33.94954527 32.31688232 36 39 C36.30550781 40.02565063 36.30550781 40.02565063 36.6171875 41.07202148 C37.23383527 43.06028495 37.8892709 45.03025551 38.5625 47 C38.78357422 47.66644531 39.00464844 48.33289063 39.23242188 49.01953125 C40.15760018 52.26673498 40.15760018 52.26673498 42 55 C46.13392023 47.87587747 49.42623178 40.82728334 52 33 C52.66 33 53.32 33 54 33 C54.0825 32.195625 54.165 31.39125 54.25 30.5625 C55.20437146 26.02923556 57.05548263 22.18109664 59 18 C59.67834587 16.33805262 60.35199575 14.67401097 61 13 C61.66 13 62.32 13 63 13 C63.1546875 11.700625 63.1546875 11.700625 63.3125 10.375 C64.03398414 6.83316877 65.27123261 4.15687958 67 1 C70.63 1 74.26 1 78 1 C77.6385223 4.52440757 76.8736535 7.5182968 75.4140625 10.71875 C74.87265625 11.91165649 74.87265625 11.91165649 74.3203125 13.12866211 C73.66675781 14.54997437 73.66675781 14.54997437 73 16 C72.47148437 17.15314697 71.94296875 18.30629395 71.3984375 19.49438477 C70.15638763 22.20212302 68.9126626 24.90908659 67.66821289 27.61572266 C60.69990794 42.77746427 53.87177334 57.99042853 47.25439453 73.30883789 C46.97370621 73.95654648 46.69301788 74.60425507 46.40382385 75.27159119 C45.64870687 77.01495052 44.89663042 78.75962594 44.14477539 80.50439453 C43 83 43 83 42 84 C40.14712498 84.07226502 38.29166122 84.0838122 36.4375 84.0625 C35.42558594 84.05347656 34.41367187 84.04445313 33.37109375 84.03515625 C32.58863281 84.02355469 31.80617188 84.01195312 31 84 C31.53017228 79.0865724 33.18133617 75.37808866 35.5625 71.125 C38.89930325 65.12278248 40.15446437 60.35799823 38.39477539 53.71533203 C37.58688816 51.27584912 36.6904267 48.89137075 35.75 46.5 C35.29947266 45.29537109 35.29947266 45.29537109 34.83984375 44.06640625 C33.11058853 39.52619149 31.13893676 35.21194755 28.91943359 30.89355469 C27.50167566 27.97371122 26.4783205 24.94593574 25.4375 21.875 C24.24817604 18.37331832 23.04544304 15.09088607 21.390625 11.78125 C19.90823627 8.81647254 19.38987693 6.2749662 19 3 C16.14236669 3.33654757 14.46174341 3.55032966 12.3659668 5.59130859 C11.89843994 6.27016113 11.43091309 6.94901367 10.94921875 7.6484375 C10.41941406 8.4014917 9.88960938 9.1545459 9.34375 9.93041992 C8.7971875 10.73713135 8.250625 11.54384277 7.6875 12.375 C6.5352743 14.02482204 5.38293084 15.67456183 4.23046875 17.32421875 C3.67665527 18.12778809 3.1228418 18.93135742 2.55224609 19.75927734 C0.58115296 22.60462066 -1.45139536 25.39749559 -3.5 28.1875 C-4.41072266 29.45013672 -4.41072266 29.45013672 -5.33984375 30.73828125 C-6.40838293 32.19400874 -7.50313721 33.631033 -8.62890625 35.04296875 C-11.28137776 38.28632295 -11.28137776 38.28632295 -11.9140625 42.27734375 C-10.69560246 45.9066884 -8.59967871 48.67246957 -6.3125 51.6875 C-2.18824912 57.27467039 1.57179296 62.95186237 5 69 C0.6139226 70.25983074 -2.64002391 70.45001483 -7 69 C-11.49129323 64.63323431 -14.42957388 58.79849748 -17.55078125 53.42529297 C-19.7217605 49.79212116 -22.1473305 46.36580786 -24.625 42.9375 C-25.0389502 42.34888184 -25.45290039 41.76026367 -25.87939453 41.15380859 C-27.99386128 38.08847095 -27.99386128 38.08847095 -31 36 C-35.26694079 35.5169501 -37.26092973 35.4456973 -40.75 38.0625 C-47.60485696 47.01189659 -48.16264439 58.11437702 -49 69 C-54.61 69 -60.22 69 -66 69 C-61.70259785 62.24693948 -56.94118842 55.93597655 -52.046875 49.61181641 C-47.89086634 44.22303286 -43.90143596 38.73993604 -40.07128906 33.11450195 C-39.09512857 31.70872265 -38.05369332 30.34864196 -37 29 C-36.34 29 -35.68 29 -35 29 C-38.33839403 22.66443675 -42.09205496 16.84189436 -46.3125 11.0625 C-47.39620396 9.5773301 -48.47585896 8.08919438 -49.55078125 6.59765625 C-50.25714722 5.63098022 -50.25714722 5.63098022 -50.9777832 4.64477539 C-52 3 -52 3 -52 1 C-48.050746 0.05398098 -44.92774615 -0.12505783 -41 1 C-37.38625934 4.64011833 -34.80865968 8.69679704 -32.16992188 13.07519531 C-30.39692713 15.99220086 -28.47526037 18.79774471 -26.5625 21.625 C-25.94503906 22.56601562 -25.32757813 23.50703125 -24.69140625 24.4765625 C-23.60811347 26.09274525 -22.47317349 27.67615375 -21.27734375 29.2109375 C-20 31 -20 31 -20 33 C-15.44073972 33.4469863 -12.12677817 33.72614593 -8.1875 31.1875 C-1.6745691 21.69722926 -1.07037286 11.14971733 0 0 Z " fill="#E7E5E1" transform="translate(418,428)"/>
<path d="M0 0 C260.7 0 521.4 0 790 0 C790 0.99 790 1.98 790 3 C529.3 3 268.6 3 0 3 C0 2.01 0 1.02 0 0 Z " fill="#FEFEFE" transform="translate(145,540)"/>
<path d="M0 0 C4.38482927 2.27071516 4.38482927 2.27071516 6 5 C7.951556 14.47255258 4.01470755 22.2272033 -1 30 C4.11257218 29.42421517 7.93864688 28.86234941 12 25.5625 C14.58908956 21.91423744 14.95714953 17.74837245 15.4453125 13.390625 C16 11 16 11 19 9 C21.33199388 8.92094936 23.66832622 8.91201231 26 9 C26.495 13.95 26.495 13.95 27 19 C28.03125 17.9275 29.0625 16.855 30.125 15.75 C34.28761786 11.58738214 38.8435836 7.19868147 45.04296875 6.90234375 C46.10451172 6.91974609 46.10451172 6.91974609 47.1875 6.9375 C49.0746875 6.9684375 49.0746875 6.9684375 51 7 C51 7.66 51 8.32 51 9 C51.61875 9.268125 52.2375 9.53625 52.875 9.8125 C55 11 55 11 57 14 C57.9512675 20.26354058 56.48943316 25.295049 54 31 C53.34 31 52.68 31 52 31 C52.495 34.96 52.495 34.96 53 39 C56.58697577 39.19927643 59.00095064 39.0683099 62 37 C62.6834744 35.6752038 63.34621066 34.33969464 64 33 C65.19018351 31.07201043 66.39977163 29.1559108 67.625 27.25 C68.57246094 25.77273438 68.57246094 25.77273438 69.5390625 24.265625 C70.02117187 23.51796875 70.50328125 22.7703125 71 22 C72.485 22.495 72.485 22.495 74 23 C72.04016157 28.24463804 69.307095 32.50633156 66 37 C65.484375 37.70511719 64.96875 38.41023437 64.4375 39.13671875 C61.9317224 42.10630614 60.1360924 43.74662687 56.28515625 44.60546875 C51.5890597 44.83869771 48.79304382 44.48802697 44.75 42 C42.37963396 37.93651536 42.91668117 35.43341403 44 31 C45.08901223 26.28094701 45.09451688 21.8203609 45 17 C40.53596464 16.44199558 37.87625288 16.67383838 34.125 19.25 C26.21726528 25.74509085 20.55365364 34.93845807 16 44 C13.125 44.125 13.125 44.125 10 44 C9.34 43.34 8.68 42.68 8 42 C8.03287583 39.27130593 8.56397771 36.7033382 9 34 C8.01 34.33 7.02 34.66 6 35 C4.12522169 35.05066968 2.25015618 35.09108245 0.375 35.125 C-6.52689476 35.62574206 -10.03727369 38.4404952 -15 43 C-19.73329633 46.76236375 -24.19987618 46.30408416 -30 46 C-34 39.25 -34 39.25 -34 37 C-34.55429687 37.433125 -35.10859375 37.86625 -35.6796875 38.3125 C-36.40414062 38.869375 -37.12859375 39.42625 -37.875 40 C-38.59429688 40.556875 -39.31359375 41.11375 -40.0546875 41.6875 C-42 43 -42 43 -44 43 C-44.33 42.34 -44.66 41.68 -45 41 C-46.98 41 -48.96 41 -51 41 C-51 40.67 -51 40.34 -51 40 C-50.40832031 39.84144531 -49.81664062 39.68289063 -49.20703125 39.51953125 C-43.86872763 37.94329478 -40.65459511 36.38551413 -37 32 C-36.29875 31.236875 -35.5975 30.47375 -34.875 29.6875 C-33.23582511 27.338016 -32.46432517 25.71255609 -31.5625 23.0625 C-29.97920842 18.46921454 -27.49276835 14.24638418 -23 12 C-20.6670134 11.95977609 -18.33293334 11.95679753 -16 12 C-15.979375 11.13375 -15.95875 10.2675 -15.9375 9.375 C-14.80331992 5.29195171 -13.32282515 3.70089802 -10.03125 1.14453125 C-6.35377582 -0.92758401 -4.17797987 -0.72948855 0 0 Z " fill="#EBEBEB" transform="translate(811,649)"/>
<path d="M0 0 C2.625 0.375 2.625 0.375 5 1 C5.00386719 1.87785156 5.00386719 1.87785156 5.0078125 2.7734375 C5.34103576 10.17099383 7.30009258 16.50283714 9.91650391 23.36474609 C11.90242734 28.79806902 12.26928544 33.21322788 12 39 C12.94875 38.34 13.8975 37.68 14.875 37 C18 35 18 35 20 35 C20.33 34.01 20.66 33.02 21 32 C21.33 32.99 21.66 33.98 22 35 C22.66 35 23.32 35 24 35 C24.99 42.92 24.99 42.92 26 51 C25.34 51 24.68 51 24 51 C22.77309928 46.47580359 21.86808377 42.70776045 22 38 C19.90947672 39.04828263 17.8278227 40.11426338 15.75 41.1875 C14.58984375 41.77917969 13.4296875 42.37085938 12.234375 42.98046875 C8.96409964 45.02241605 7.23166243 46.90216721 5 50 C1.0829336 53.34102722 -2.5463521 53.45804242 -7.50390625 53.28125 C-12.77417254 52.68741718 -16.47812383 50.88969233 -19.9375 46.9375 C-22 44 -22 44 -22 42 C-22.69867187 42.49371094 -23.39734375 42.98742187 -24.1171875 43.49609375 C-25.02726563 44.13675781 -25.93734375 44.77742187 -26.875 45.4375 C-27.77992188 46.07558594 -28.68484375 46.71367188 -29.6171875 47.37109375 C-34.48333899 50.69762681 -39.20505704 50.92685687 -45 50 C-47.45359815 48.20939539 -48.39786539 46.65180901 -50 44 C-52.75649266 45.57513866 -55.21998537 47.17905786 -57.6875 49.1875 C-60 51 -60 51 -62 51 C-62 51.66 -62 52.32 -62 53 C-68.09067026 53.42004622 -71.10816881 53.0566405 -76 49 C-78.04542886 44.90914228 -77.64743724 40.42954979 -77 36 C-71.89608996 22.85120736 -63.27573942 13.66340621 -51 7 C-46.93486443 5.64495481 -43.25054768 5.46324142 -39 6 C-35.1973971 8.0050088 -33.38209159 9.42686262 -31 13 C-30.75 16.0625 -30.75 16.0625 -31 19 C-31.66 19.66 -32.32 20.32 -33 21 C-34.32 21 -35.64 21 -37 21 C-37.22786458 18.94921875 -37.45572917 16.8984375 -37.68359375 14.84765625 C-37.81886614 12.98859771 -37.81886614 12.98859771 -39 12 C-43.13083652 11.10560013 -46.60983025 11.20293809 -50.31640625 13.328125 C-59.88255415 21.24723178 -65.56216304 31.30713378 -66.84375 43.61328125 C-66.8953125 44.40089844 -66.946875 45.18851563 -67 46 C-60.95116624 44.87225133 -58.0868105 43.82034059 -54 39 C-53.46761719 38.40960937 -52.93523438 37.81921875 -52.38671875 37.2109375 C-48.00543664 32.33421107 -43.97059785 27.21367256 -40 22 C-38.02 22.33 -36.04 22.66 -34 23 C-34.406868 27.98413305 -35.37021703 30.83929526 -38.078125 35.15625 C-39.66767706 38.33535413 -39.75324839 41.4837895 -40 45 C-33.05320299 43.88355048 -28.62007976 41.38633689 -24 36 C-23.67 34.96875 -23.34 33.9375 -23 32.875 C-21.83732168 29.53229982 -21.47683829 29.52385769 -18.5 28 C-11.44153076 24.01829941 -5.67658479 15.73082839 -2.9921875 8.15625 C-2.57565112 6.11984993 -2.27471073 4.06033051 -2 2 C-1.34 1.34 -0.68 0.68 0 0 Z " fill="#EFEFEF" transform="translate(668,644)"/>
<path d="M0 0 C0.93005859 0.79857422 0.93005859 0.79857422 1.87890625 1.61328125 C1.87890625 5.57458496 0.530135 6.44242526 -2.12109375 9.30078125 C-3.23484375 10.51314453 -3.23484375 10.51314453 -4.37109375 11.75 C-5.23734375 12.67232422 -5.23734375 12.67232422 -6.12109375 13.61328125 C-10.20825518 13.04185347 -12.59040573 10.84448228 -15.74609375 8.30078125 C-25.58314083 0.6106606 -35.6847968 -2.50566578 -48.12109375 -1.38671875 C-54.33702787 0.32730959 -58.57701566 4.32782223 -62.12109375 9.61328125 C-63.88413066 14.90239199 -63.79588242 19.84597759 -61.80859375 25.05078125 C-60.21607811 27.83149811 -60.21607811 27.83149811 -57.12109375 29.61328125 C-49.66912135 30.61307786 -42.74686955 29.42884423 -35.55859375 27.61328125 C-28.80550655 25.93993058 -22.39409013 25.2015394 -15.43359375 25.17578125 C-14.60851318 25.16611328 -13.78343262 25.15644531 -12.93334961 25.14648438 C-5.47895264 25.25019772 0.41130738 27.29756013 5.87890625 32.61328125 C8.64595265 37.17789794 9.46019755 41.16108517 9.44140625 46.42578125 C9.43898926 47.13065674 9.43657227 47.83553223 9.43408203 48.56176758 C9.20512579 55.0645739 7.31361947 58.99378831 2.87890625 63.61328125 C2.01265625 64.54140625 1.14640625 65.46953125 0.25390625 66.42578125 C-9.58253827 73.67103962 -22.43761684 73.85153472 -34.12109375 72.61328125 C-43.9565391 70.53554342 -52.32656668 63.65085106 -58.12109375 55.61328125 C-58.12109375 54.95328125 -58.12109375 54.29328125 -58.12109375 53.61328125 C-58.78109375 53.61328125 -59.44109375 53.61328125 -60.12109375 53.61328125 C-63.12109375 47.98828125 -63.12109375 47.98828125 -63.12109375 44.61328125 C-61.75041265 44.10156031 -60.374253 43.60450633 -58.99609375 43.11328125 C-58.23039063 42.83484375 -57.4646875 42.55640625 -56.67578125 42.26953125 C-53.57033811 41.47180274 -51.31086234 41.13820933 -48.12109375 41.61328125 C-46.06640625 43.95703125 -46.06640625 43.95703125 -44.24609375 47.11328125 C-37.78152327 57.50801673 -30.82600375 63.71164458 -19.12109375 67.61328125 C-12.99290296 68.24181364 -7.56039742 67.6007325 -2.12109375 64.61328125 C2.22265685 60.94522519 5.55013688 57.21765034 6.27734375 51.45703125 C6.26574219 49.801875 6.26574219 49.801875 6.25390625 48.11328125 C6.26164063 47.00984375 6.269375 45.90640625 6.27734375 44.76953125 C5.82856898 41.21453108 5.08300482 39.42374755 2.87890625 36.61328125 C-2.69821046 32.34403111 -8.39329073 32.96506493 -15.12109375 33.61328125 C-18.08263424 34.18481867 -21.00491835 34.89388051 -23.93359375 35.61328125 C-34.93378072 38.27151403 -46.79758359 40.29124086 -57.0625 34.25 C-61.05254883 31.07764619 -63.85359017 27.14828841 -66.12109375 22.61328125 C-66.90179497 15.72775242 -66.21699079 10.27266587 -62.12109375 4.61328125 C-44.05604838 -16.84799265 -21.71583555 -13.75020155 0 0 Z " fill="#EDEBE7" transform="translate(608.12109375,424.38671875)"/>
<path d="M0 0 C1.50818047 0.00636726 1.50818047 0.00636726 3.04682922 0.01286316 C6.21510171 0.02947229 9.3827055 0.06708978 12.55078125 0.10546875 C14.7167876 0.12053859 16.88280406 0.13422294 19.04882812 0.14648438 C24.32053537 0.17931715 29.59186052 0.2293348 34.86328125 0.29296875 C32.36761315 5.71949015 28.23359697 7.90616176 22.86328125 10.29296875 C16.03558191 11.67519061 8.589126 9.56757892 1.86328125 8.29296875 C1.66025391 9.11861328 1.66025391 9.11861328 1.453125 9.9609375 C-1.20775215 20.23797799 -4.72699018 30.24567255 -8.13671875 40.29296875 C-7.27639038 40.27556641 -7.27639038 40.27556641 -6.39868164 40.2578125 C-1.66879883 40.20281957 2.75609645 40.43417614 7.42578125 41.29296875 C8.97458984 41.57140625 8.97458984 41.57140625 10.5546875 41.85546875 C11.31652344 41.99984375 12.07835937 42.14421875 12.86328125 42.29296875 C12.86328125 42.95296875 12.86328125 43.61296875 12.86328125 44.29296875 C4.79803529 47.68886178 -2.51933022 47.59951617 -11.13671875 47.29296875 C-11.36359375 48.55109375 -11.59046875 49.80921875 -11.82421875 51.10546875 C-12.87364802 56.39791418 -14.24103441 61.58413881 -15.63671875 66.79296875 C-18.16665168 76.27356916 -20.19030046 85.51331309 -21.13671875 95.29296875 C-24.34330507 95.65943576 -26.02185558 95.34912408 -28.94921875 93.91796875 C-31.80653099 90.48919406 -31.66736917 88.46967638 -31.42578125 84.12109375 C-30.12452709 71.38990439 -26.40518804 59.93905877 -21.13671875 48.29296875 C-27.57171875 48.78796875 -27.57171875 48.78796875 -34.13671875 49.29296875 C-33.13671875 44.29296875 -33.13671875 44.29296875 -31.26171875 42.54296875 C-27.89775108 40.56416424 -25.27284404 40.17505389 -21.44921875 40.23046875 C-20.30682739 40.24702515 -20.30682739 40.24702515 -19.14135742 40.26391602 C-18.14906128 40.27829712 -18.14906128 40.27829712 -17.13671875 40.29296875 C-16.97453857 39.62869873 -16.8123584 38.96442871 -16.64526367 38.2800293 C-14.83868901 31.2417229 -12.39666174 24.73839069 -9.44921875 18.10546875 C-8.82563477 16.67750977 -8.82563477 16.67750977 -8.18945312 15.22070312 C-7.17855626 12.9084218 -6.16096138 10.59936145 -5.13671875 8.29296875 C-7.90988551 8.54780029 -10.6790643 8.82106324 -13.44921875 9.10546875 C-14.23490234 9.17572266 -15.02058594 9.24597656 -15.83007812 9.31835938 C-16.58740234 9.39892578 -17.34472656 9.47949219 -18.125 9.5625 C-18.82149658 9.63057861 -19.51799316 9.69865723 -20.2355957 9.76879883 C-22.63680491 10.43085047 -23.59278402 11.36053602 -25.13671875 13.29296875 C-27.01808361 18.93706334 -26.66486697 25.56241293 -25.13671875 31.29296875 C-29.17780258 31.10928312 -30.71411163 30.74893959 -33.51171875 27.73046875 C-35.40200482 23.73178668 -36.19181634 20.58584674 -35.13671875 16.29296875 C-31.79247772 9.89991435 -26.55538823 4.88413265 -19.74967957 2.43339539 C-13.0351976 0.51444829 -6.96308972 -0.11355934 0 0 Z " fill="#EEEEEE" transform="translate(584.13671875,605.70703125)"/>
<path d="M0 0 C1.40267951 1.01140575 2.79943482 2.03112886 4.1875 3.0625 C5.5178125 3.92875 5.5178125 3.92875 6.875 4.8125 C13.49806134 11.25655969 15.16111839 16.82506553 16.1875 26.0625 C-1.9625 26.0625 -20.1125 26.0625 -38.8125 26.0625 C-38.8125 25.7325 -38.8125 25.4025 -38.8125 25.0625 C-24.9525 25.0625 -11.0925 25.0625 3.1875 25.0625 C1.72598366 14.8318856 -1.79322651 5.6368101 -10.25 -0.75 C-15.74540385 -4.00806307 -21.63058521 -3.80910156 -27.8125 -2.9375 C-31.34836711 -1.44324084 -31.34836711 -1.44324084 -33.8125 1.0625 C-34.699375 1.825625 -35.58625 2.58875 -36.5 3.375 C-39.13370047 6.43578703 -40.37792498 9.3052797 -41.8125 13.0625 C-42.1633667 13.70759521 -42.5142334 14.35269043 -42.87573242 15.01733398 C-46.44090971 22.80088627 -44.50961339 36.85055939 -41.921875 44.69921875 C-38.9657786 50.99653679 -34.29467012 57.30157569 -27.8125 60.0625 C-20.83216714 61.01270238 -14.30818523 61.11222929 -8.5234375 56.71875 C-1.23691765 49.66513261 0.59418439 41.88794624 2.1875 32.0625 C6.47933459 33.70807388 10.23330299 35.73650176 14.1875 38.0625 C13.7873363 43.33524525 11.90987853 46.31222808 8.375 50.0625 C7.89015137 50.58432861 7.40530273 51.10615723 6.90576172 51.64379883 C-0.96852013 59.70568349 -10.3273948 63.13674718 -21.4375 63.375 C-32.58942751 63.25846993 -40.66990614 59.59693333 -48.8125 52.0625 C-52.8125 47.6722561 -52.8125 47.6722561 -52.8125 45.0625 C-53.4725 45.0625 -54.1325 45.0625 -54.8125 45.0625 C-58.63296513 33.72049416 -60.14957636 25.47412296 -55.8125 14.0625 C-50.86993683 4.86248142 -41.65946805 -2.17891752 -31.80078125 -5.31640625 C-20.52063784 -7.66090664 -9.6618296 -6.27701101 0 0 Z " fill="#E3E2DE" transform="translate(805.8125,433.9375)"/>
<path d="M0 0 C1.40267951 1.01140575 2.79943482 2.03112886 4.1875 3.0625 C5.5178125 3.92875 5.5178125 3.92875 6.875 4.8125 C13.49806134 11.25655969 15.16111839 16.82506553 16.1875 26.0625 C-1.9625 26.0625 -20.1125 26.0625 -38.8125 26.0625 C-38.8125 25.7325 -38.8125 25.4025 -38.8125 25.0625 C-24.9525 25.0625 -11.0925 25.0625 3.1875 25.0625 C1.72598366 14.8318856 -1.79322651 5.6368101 -10.25 -0.75 C-15.74540385 -4.00806307 -21.63058521 -3.80910156 -27.8125 -2.9375 C-31.34836711 -1.44324084 -31.34836711 -1.44324084 -33.8125 1.0625 C-34.699375 1.825625 -35.58625 2.58875 -36.5 3.375 C-39.13370047 6.43578703 -40.37792498 9.3052797 -41.8125 13.0625 C-42.1633667 13.70759521 -42.5142334 14.35269043 -42.87573242 15.01733398 C-46.44090971 22.80088627 -44.50961339 36.85055939 -41.921875 44.69921875 C-38.9657786 50.99653679 -34.29467012 57.30157569 -27.8125 60.0625 C-20.83216714 61.01270238 -14.30818523 61.11222929 -8.5234375 56.71875 C-1.23691765 49.66513261 0.59418439 41.88794624 2.1875 32.0625 C6.47933459 33.70807388 10.23330299 35.73650176 14.1875 38.0625 C13.7873363 43.33524525 11.90987853 46.31222808 8.375 50.0625 C7.89015137 50.58432861 7.40530273 51.10615723 6.90576172 51.64379883 C-0.96852013 59.70568349 -10.3273948 63.13674718 -21.4375 63.375 C-32.58942751 63.25846993 -40.66990614 59.59693333 -48.8125 52.0625 C-52.8125 47.6722561 -52.8125 47.6722561 -52.8125 45.0625 C-53.4725 45.0625 -54.1325 45.0625 -54.8125 45.0625 C-58.63296513 33.72049416 -60.14957636 25.47412296 -55.8125 14.0625 C-50.86993683 4.86248142 -41.65946805 -2.17891752 -31.80078125 -5.31640625 C-20.52063784 -7.66090664 -9.6618296 -6.27701101 0 0 Z " fill="#E3E2DE" transform="translate(339.8125,433.9375)"/>
<path d="M0 0 C20.79 0 41.58 0 63 0 C63 4.62 63 9.24 63 14 C58.94301917 13.18860383 56.32160978 12.36053723 52.6875 10.625 C51.71554688 10.17640625 50.74359375 9.7278125 49.7421875 9.265625 C48.18489583 8.546875 46.62760417 7.828125 45.0703125 7.109375 C35.10438403 2.94583155 23.59069626 2.05906963 13 1 C13 13.54 13 26.08 13 39 C21.58 39 30.16 39 39 39 C39 39.33 39 39.66 39 40 C30.42 40 21.84 40 13 40 C13 54.52 13 69.04 13 84 C8.71 84 4.42 84 0 84 C0 56.28 0 28.56 0 0 Z " fill="#F2F0EC" transform="translate(191,413)"/>
<path d="M0 0 C3.81758707 1.91382462 7.52383442 4.00428956 11.20410156 6.17089844 C11.20410156 9.17089844 11.20410156 9.17089844 9.67285156 10.99511719 C9.02316406 11.61 8.37347656 12.22488281 7.70410156 12.85839844 C7.05441406 13.48101562 6.40472656 14.10363281 5.73535156 14.74511719 C5.23003906 15.215625 4.72472656 15.68613281 4.20410156 16.17089844 C0.75947028 14.90846812 -2.0174948 13.44381364 -4.98339844 11.29589844 C-13.90538086 5.29891519 -21.95746447 2.81436392 -32.79589844 4.17089844 C-37.37016386 5.46126174 -40.07080203 7.3914198 -43.29589844 10.85839844 C-45.18481723 15.02976078 -45.5362853 18.65109493 -44.79589844 23.17089844 C-43.07363348 26.41939821 -43.07363348 26.41939821 -39.79589844 27.17089844 C-33.60738928 27.49412851 -28.24442014 26.5505443 -22.23339844 25.17089844 C-10.98580224 22.79395771 0.81351711 20.38117134 11.23925781 26.64355469 C14.39828832 29.09918278 16.24511185 31.32818613 17.20410156 35.17089844 C17.88764475 40.995559 18.07329429 46.17899844 15.70410156 51.60839844 C8.64201979 58.84703226 2.01396327 62.34337111 -8.25292969 62.55200195 C-20.96216926 62.51817199 -29.27557582 60.52142491 -38.69042969 51.42089844 C-44.79589844 44.89631588 -44.79589844 44.89631588 -44.79589844 40.17089844 C-43.38192942 39.66331982 -41.96458115 39.16514919 -40.54589844 38.67089844 C-39.75699219 38.39246094 -38.96808594 38.11402344 -38.15527344 37.82714844 C-35.79589844 37.17089844 -35.79589844 37.17089844 -31.79589844 37.17089844 C-30.23339844 38.96386719 -30.23339844 38.96386719 -28.79589844 41.35839844 C-28.27511719 42.18339844 -27.75433594 43.00839844 -27.21777344 43.85839844 C-26.74855469 44.62152344 -26.27933594 45.38464844 -25.79589844 46.17089844 C-22.15350766 51.76456999 -16.15806285 55.74546676 -9.81152344 57.81933594 C-3.67762225 58.88920242 2.2111217 59.22832543 7.70410156 55.98339844 C10.80718372 53.68788069 12.90756247 51.89844832 14.20410156 48.17089844 C14.89784613 42.95204726 14.99858998 38.72931803 12.57910156 33.98339844 C5.57298886 30.22085643 -2.90540237 31.70866539 -10.48339844 33.17089844 C-15.8486248 34.16017975 -21.10291353 34.49503572 -26.54589844 34.60839844 C-27.33826904 34.64255859 -28.13063965 34.67671875 -28.94702148 34.71191406 C-35.05412377 34.75792341 -39.06091294 33.00958914 -43.79589844 29.17089844 C-46.8589744 25.72493798 -47.71364267 23.81866262 -48.29589844 19.23339844 C-47.90438335 12.79786916 -44.60118307 8.69793343 -40.04589844 4.48339844 C-28.2753682 -5.3070426 -13.92786056 -6.42999109 0 0 Z " fill="#E9E7E3" transform="translate(874.7958984375,432.8291015625)"/>
<path d="M0 0 C5.28 0 10.56 0 16 0 C15.97679687 1.98902344 15.95359375 3.97804688 15.9296875 6.02734375 C15.91576486 7.9834747 15.90191931 9.93960694 15.89013672 11.89575195 C15.87529755 13.89736377 15.84986639 15.89888812 15.82421875 17.90039062 C15.78901845 24.88765058 15.96121465 31.29534184 18 38 C18.20367188 38.68441162 18.40734375 39.36882324 18.6171875 40.07397461 C19.2341747 42.06143989 19.88948413 44.03087939 20.5625 46 C20.78357422 46.66644531 21.00464844 47.33289063 21.23242188 48.01953125 C22.15760018 51.26673498 22.15760018 51.26673498 24 54 C28.13392023 46.87587747 31.42623178 39.82728334 34 32 C34.66 32 35.32 32 36 32 C36.0825 31.195625 36.165 30.39125 36.25 29.5625 C37.20437146 25.02923556 39.05548263 21.18109664 41 17 C41.67834587 15.33805262 42.35199575 13.67401097 43 12 C43.66 12 44.32 12 45 12 C45.103125 11.13375 45.20625 10.2675 45.3125 9.375 C46.03398414 5.83316877 47.27123261 3.15687958 49 0 C52.63 0 56.26 0 60 0 C59.06992751 9.06820682 54.01735666 17.03394126 49.87890625 24.984375 C48.26148028 28.27453105 46.96894557 31.64703918 45.6796875 35.078125 C42.97675586 42.21840778 39.81920569 49.09806935 36.5625 56 C35.45950107 58.35410372 34.35663588 60.70827012 33.25390625 63.0625 C32.71910645 64.20074219 32.18430664 65.33898437 31.63330078 66.51171875 C29.06503363 71.99683102 26.53121883 77.49769809 24 83 C20.37 83 16.74 83 13 83 C13.53017228 78.0865724 15.18133617 74.37808866 17.5625 70.125 C20.89930325 64.12278248 22.15446437 59.35799823 20.39477539 52.71533203 C19.58688816 50.27584912 18.6904267 47.89137075 17.75 45.5 C17.44964844 44.69691406 17.14929688 43.89382813 16.83984375 43.06640625 C15.11058853 38.52619149 13.13893676 34.21194755 10.91943359 29.89355469 C9.50167566 26.97371122 8.4783205 23.94593574 7.4375 20.875 C6.25642015 17.39759114 5.06511697 14.13023394 3.421875 10.84375 C1.62559414 7.25118827 0.87575473 3.90721341 0 0 Z " fill="#E5E4E0" transform="translate(659,429)"/>
<path d="M0 0 C3.96 0 7.92 0 12 0 C12 10.89 12 21.78 12 33 C17.28 33 22.56 33 28 33 C28 35.64 28 38.28 28 41 C26.64451156 40.56661254 25.29068724 40.12802005 23.9375 39.6875 C23.18339844 39.44386719 22.42929687 39.20023437 21.65234375 38.94921875 C18.37038717 37.77467464 15.19920943 36.38233396 12 35 C12.06912457 40.42646953 12.15721073 45.85218667 12.26245117 51.27807617 C12.29559026 53.12174088 12.32365613 54.96550436 12.34643555 56.80932617 C12.38018512 59.46836208 12.43250966 62.12650187 12.48828125 64.78515625 C12.49467117 65.60210464 12.5010611 66.41905304 12.50764465 67.26075745 C12.64164917 72.54318091 13.62513522 76.26962324 16 81 C19.95388282 81.47070034 21.69621356 81.18834759 25.125 79.0625 C28.7434553 75.76780123 30.32978059 71.5095924 32 67 C32.66 67 33.32 67 34 67 C35.5078125 68.53125 35.5078125 68.53125 37.125 70.5 C37.66382813 71.1496875 38.20265625 71.799375 38.7578125 72.46875 C39.16773438 72.9740625 39.57765625 73.479375 40 74 C38.614012 77.35066172 37.2243823 78.83371851 34.125 80.6875 C33.44695313 81.10386719 32.76890625 81.52023437 32.0703125 81.94921875 C26.5139899 84.76931456 19.79738092 85.00538887 13.81640625 83.421875 C7.93073159 80.897804 4.3773115 76.31559463 1 71 C-0.13502438 67.59492687 -0.12016228 65.00779288 -0.11352539 61.41723633 C-0.11367142 60.75355545 -0.11381744 60.08987457 -0.1139679 59.40608215 C-0.11327182 57.21469848 -0.1054937 55.02340005 -0.09765625 52.83203125 C-0.09579099 51.31174262 -0.09436759 49.79145339 -0.09336853 48.27116394 C-0.08955188 44.27135557 -0.07972885 40.27158356 -0.06866455 36.27178955 C-0.05843213 32.18966158 -0.05386698 28.10752773 -0.04882812 24.02539062 C-0.03810583 16.01691041 -0.02103961 8.00845973 0 0 Z " fill="#EDEBE8" transform="translate(625,413)"/>
<path d="M0 0 C1.8871875 0.0309375 1.8871875 0.0309375 3.8125 0.0625 C3.8125 0.7225 3.8125 1.3825 3.8125 2.0625 C4.740625 2.4646875 4.740625 2.4646875 5.6875 2.875 C7.8125 4.0625 7.8125 4.0625 9.8125 7.0625 C10.7637675 13.32604058 9.30193316 18.357549 6.8125 24.0625 C6.1525 24.0625 5.4925 24.0625 4.8125 24.0625 C5.3075 28.0225 5.3075 28.0225 5.8125 32.0625 C9.39947577 32.26177643 11.81345064 32.1308099 14.8125 30.0625 C15.4959744 28.7377038 16.15871066 27.40219464 16.8125 26.0625 C18.00268351 24.13451043 19.21227163 22.2184108 20.4375 20.3125 C21.06914063 19.32765625 21.70078125 18.3428125 22.3515625 17.328125 C22.83367188 16.58046875 23.31578125 15.8328125 23.8125 15.0625 C24.8025 15.3925 25.7925 15.7225 26.8125 16.0625 C24.85266157 21.30713804 22.119595 25.56883156 18.8125 30.0625 C18.296875 30.76761719 17.78125 31.47273437 17.25 32.19921875 C14.7442224 35.16880614 12.9485924 36.80912687 9.09765625 37.66796875 C4.4015597 37.90119771 1.60554382 37.55052697 -2.4375 35.0625 C-4.80786604 30.99901536 -4.27081883 28.49591403 -3.1875 24.0625 C-2.09848777 19.34344701 -2.09298312 14.8828609 -2.1875 10.0625 C-6.65153536 9.50449558 -9.31124712 9.73633838 -13.0625 12.3125 C-20.97023472 18.80759085 -26.63384636 28.00095807 -31.1875 37.0625 C-34.0625 37.1875 -34.0625 37.1875 -37.1875 37.0625 C-39.1875 35.0625 -39.1875 35.0625 -39.5 32.75 C-39.12815148 29.55210271 -37.99197532 27.69402651 -36.1875 25.0625 C-37.5075 24.7325 -38.8275 24.4025 -40.1875 24.0625 C-39.70539062 23.54042969 -39.22328125 23.01835938 -38.7265625 22.48046875 C-34.20968584 17.21692472 -32.33381422 13.26881488 -31.671875 6.34765625 C-31.1875 4.0625 -31.1875 4.0625 -28.1875 2.0625 C-25.85550612 1.98344936 -23.51917378 1.97451231 -21.1875 2.0625 C-20.8575 5.3625 -20.5275 8.6625 -20.1875 12.0625 C-18.640625 10.45375 -18.640625 10.45375 -17.0625 8.8125 C-12.08584156 3.83584156 -7.35231156 -0.1205297 0 0 Z " fill="#F0F0F0" transform="translate(858.1875,655.9375)"/>
<path d="M0 0 C3.8026029 2.0050088 5.61790841 3.42686262 8 7 C8.25 10.0625 8.25 10.0625 8 13 C7.34 13.66 6.68 14.32 6 15 C4.68 15 3.36 15 2 15 C1.77213542 12.94921875 1.54427083 10.8984375 1.31640625 8.84765625 C1.18113386 6.98859771 1.18113386 6.98859771 0 6 C-4.13083652 5.10560013 -7.60983025 5.20293809 -11.31640625 7.328125 C-20.88255415 15.24723178 -26.56216304 25.30713378 -27.84375 37.61328125 C-27.8953125 38.40089844 -27.946875 39.18851563 -28 40 C-21.95116624 38.87225133 -19.0868105 37.82034059 -15 33 C-14.46761719 32.40960937 -13.93523438 31.81921875 -13.38671875 31.2109375 C-9.00543664 26.33421107 -4.97059785 21.21367256 -1 16 C0.98 16.33 2.96 16.66 5 17 C4.593132 21.98413305 3.62978297 24.83929526 0.921875 29.15625 C-0.66767706 32.33535413 -0.75324839 35.4837895 -1 39 C1.97 39 4.94 39 8 39 C7.67 40.32 7.34 41.64 7 43 C3.02990115 44.98504943 -1.6963251 44.68833993 -6 44 C-8.45359815 42.20939539 -9.39786539 40.65180901 -11 38 C-13.75649266 39.57513866 -16.21998537 41.17905786 -18.6875 43.1875 C-21 45 -21 45 -23 45 C-23 45.66 -23 46.32 -23 47 C-29.09067026 47.42004622 -32.10816881 47.0566405 -37 43 C-39.04542886 38.90914228 -38.64743724 34.42954979 -38 30 C-32.89608996 16.85120736 -24.27573942 7.66340621 -12 1 C-7.93486443 -0.35504519 -4.25054768 -0.53675858 0 0 Z " fill="#E6E6E6" transform="translate(629,650)"/>
<path d="M0 0 C3.63 0 7.26 0 11 0 C11 27.72 11 55.44 11 84 C7.37 84 3.74 84 0 84 C0 56.28 0 28.56 0 0 Z " fill="#EEECE8" transform="translate(727,413)"/>
<path d="M0 0 C3.63 0 7.26 0 11 0 C11 27.72 11 55.44 11 84 C7.37 84 3.74 84 0 84 C0 56.28 0 28.56 0 0 Z " fill="#EEECE8" transform="translate(261,413)"/>
<path d="M0 0 C0.93005859 0.79857422 0.93005859 0.79857422 1.87890625 1.61328125 C1.87890625 5.57458496 0.530135 6.44242526 -2.12109375 9.30078125 C-3.23484375 10.51314453 -3.23484375 10.51314453 -4.37109375 11.75 C-5.23734375 12.67232422 -5.23734375 12.67232422 -6.12109375 13.61328125 C-10.20825518 13.04185347 -12.59040573 10.84448228 -15.74609375 8.30078125 C-25.51969503 0.66025941 -35.73718866 -2.60610582 -48.12109375 -1.38671875 C-51.07082562 -0.32795919 -53.40584511 1.00424502 -56.12109375 2.61328125 C-56.78109375 2.61328125 -57.44109375 2.61328125 -58.12109375 2.61328125 C-55.6470057 -3.24979199 -50.39773061 -6.83519865 -44.76171875 -9.50390625 C-28.19870022 -15.18729496 -13.93039291 -8.82055447 0 0 Z " fill="#EDEBE7" transform="translate(608.12109375,424.38671875)"/>
<path d="M0 0 C0.66 0.66 1.32 1.32 2 2 C0.73046875 3.46484375 -0.5390625 4.9296875 -1.80859375 6.39453125 C-4.77540573 10.39243198 -4.4612696 15.25782478 -4 20 C-2.44728802 24.06662662 -1.63720598 25.57519602 2 28 C9.4519724 28.99979661 16.3742242 27.81556298 23.5625 26 C30.3155872 24.32664933 36.72700362 23.58825815 43.6875 23.5625 C44.51258057 23.55283203 45.33766113 23.54316406 46.18774414 23.53320312 C53.64214111 23.63691647 59.53240113 25.68427888 65 31 C67.79740027 35.59669898 68.5451591 39.57633265 68.5 44.875 C68.4990332 45.93074219 68.4990332 45.93074219 68.49804688 47.0078125 C68.32370622 53.0816158 66.83023241 56.40372111 63 61 C62.34 60.34 61.68 59.68 61 59 C61.99 57.9171875 61.99 57.9171875 63 56.8125 C66.29120897 51.91668024 65.78238146 45.6317368 65 40 C63.14898072 35.86347783 61.12132 33.87661862 57 32 C49.53741912 30.8012352 42.4135618 32.22498792 35.1875 34 C24.18731303 36.65823278 12.32351016 38.67795961 2.05859375 32.63671875 C-1.93145508 29.46436494 -4.73249642 25.53500716 -7 21 C-7.77775521 14.14045403 -6.95319037 8.72485429 -3 3 C-2.02590007 1.97475401 -1.03199801 0.96694369 0 0 Z " fill="#EAE8E5" transform="translate(549,426)"/>
<path d="M0 0 C3.55680172 2.10504591 4.69468936 3.08406808 6 7 C6.75422859 13.15747272 5.62825524 17.41952294 2.890625 22.9140625 C1.71249253 25.67337275 1.69658379 28.04169198 2 31 C4.89764916 31.12073538 6.36435132 31.09488413 9 30 C13.69769163 25.43089482 17.45753967 20.03834328 20 14 C20.99 14 21.98 14 23 14 C22.42676628 18.21135709 20.99298383 21.01294352 18.6875 24.5625 C18.09324219 25.49191406 17.49898437 26.42132812 16.88671875 27.37890625 C15.08843196 29.87714732 13.31379765 31.97244535 11 34 C10.34 34 9.68 34 9 34 C8.67 34.99 8.34 35.98 8 37 C-1.48283251 37.89680027 -1.48283251 37.89680027 -4.84375 35.91015625 C-7.27127652 33.24975655 -7.99628322 31.02973423 -8.4375 27.5 C-8 24 -8 24 -7 21.125 C-5.68731692 17.02286537 -5.82924837 13.26879078 -6 9 C-8.70370237 8.60571007 -10.37504888 8.40454795 -13 9 C-15.0969055 10.58400444 -15.0969055 10.58400444 -17.0625 12.5625 C-19.06640625 14.5078125 -19.06640625 14.5078125 -21 16 C-24.5 15.9375 -24.5 15.9375 -27 15 C-25.88055144 12.76110289 -24.78741912 11.84511192 -22.875 10.25 C-21.93720703 9.46302734 -21.93720703 9.46302734 -20.98046875 8.66015625 C-20.32691406 8.11230469 -19.67335938 7.56445312 -19 7 C-17.15828174 5.40187574 -15.31843499 3.80165613 -13.48046875 2.19921875 C-9.54645196 -0.98743865 -4.82999239 -0.56198025 0 0 Z " fill="#EFB807" transform="translate(515,658)"/>
<path d="M0 0 C2 2 2 2 2.1953125 3.9453125 C2.13020833 5.96354167 2.06510417 7.98177083 2 10 C3.65 9.34 5.3 8.68 7 8 C7 5.36 7 2.72 7 0 C7.66 0.33 8.32 0.66 9 1 C9.48541424 8.40256709 9.48541424 8.40256709 7.375 11 C5 12 5 12 2.1640625 11.68359375 C-1.23293991 11.68322007 -1.23293991 11.68322007 -3.5625 14.59765625 C-4.39361002 15.73928539 -5.20541221 16.89515636 -6 18.0625 C-6.86734454 19.25994481 -7.73582715 20.45656614 -8.60546875 21.65234375 C-9.22301025 22.52028564 -9.22301025 22.52028564 -9.85302734 23.40576172 C-13.19715569 28.05394352 -16.60852861 32.70862466 -22 35 C-25.3125 35.1875 -25.3125 35.1875 -28 35 C-28.80163002 22.17391972 -23.35406095 14.22962053 -15.015625 4.7421875 C-10.46509493 0.24626379 -6.41039283 -1.50285143 0 0 Z " fill="#101010" transform="translate(629,655)"/>
<path d="M0 0 C2.37040308 2.37040308 2.34465793 3.06302753 2.4375 6.3125 C2.47746094 7.07175781 2.51742188 7.83101562 2.55859375 8.61328125 C1.73811851 12.11894817 -0.39802276 13.54834331 -3 16 C-3.97691094 17.1807064 -4.93172451 18.3799413 -5.8671875 19.59375 C-6.36089844 20.23183594 -6.85460937 20.86992188 -7.36328125 21.52734375 C-8.3682103 22.83868527 -9.3682528 24.15378652 -10.36328125 25.47265625 C-13.81163325 29.90625168 -17.19046374 33.05736065 -22 36 C-24.9375 35.8125 -24.9375 35.8125 -27 35 C-27.66971703 24.61938604 -24.56163755 17.07825757 -17.91796875 9.1171875 C-8.468275 -1.31404267 -8.468275 -1.31404267 0 0 Z " fill="#0A0800" transform="translate(457,656)"/>
<path d="M0 0 C0.856601 2.88221041 1.30063531 4.38064605 -0.0390625 7.140625 C-0.56242188 7.83671875 -1.08578125 8.5328125 -1.625 9.25 C-2.45257812 10.42755859 -2.45257812 10.42755859 -3.296875 11.62890625 C-4.36660179 13.11818185 -5.43910702 14.60546973 -6.515625 16.08984375 C-10.81380072 22.72237353 -10.74414022 29.26094173 -10 37 C-9.01732141 38.20561184 -9.01732141 38.20561184 -7.15234375 38.09765625 C-5.1015625 38.06510417 -3.05078125 38.03255208 -1 38 C-1.375 39.9375 -1.375 39.9375 -2 42 C-5.96691693 43.98345846 -10.68615926 43.54078407 -15 43 C-18.1875 40.9375 -18.1875 40.9375 -20 38 C-20.3125 34.1875 -20.3125 34.1875 -20 31 C-20.66 31 -21.32 31 -22 31 C-20.06666727 23.8615407 -17.89186263 17.32427677 -14 11 C-13.54625 9.824375 -13.0925 8.64875 -12.625 7.4375 C-9.7644805 1.38640106 -6.67468202 -0.62090065 0 0 Z " fill="#EEEEEE" transform="translate(769,651)"/>
<path d="M0 0 C20.79 0 41.58 0 63 0 C63 4.62 63 9.24 63 14 C58.94301917 13.18860383 56.32160978 12.36053723 52.6875 10.625 C51.71554688 10.17640625 50.74359375 9.7278125 49.7421875 9.265625 C48.18489583 8.546875 46.62760417 7.828125 45.0703125 7.109375 C35.10438403 2.94583155 23.59069626 2.05906963 13 1 C13 13.54 13 26.08 13 39 C12.67 39 12.34 39 12 39 C12 26.46 12 13.92 12 1 C8.37 1 4.74 1 1 1 C1 28.39 1 55.78 1 84 C0.67 84 0.34 84 0 84 C0 56.28 0 28.56 0 0 Z " fill="#D3D2CE" transform="translate(191,413)"/>
<path d="M0 0 C1.5625 1.79296875 1.5625 1.79296875 3 4.1875 C3.52078125 5.0125 4.0415625 5.8375 4.578125 6.6875 C5.28195312 7.8321875 5.28195312 7.8321875 6 9 C9.65904423 14.6192465 15.5696873 18.40843808 21.859375 20.66796875 C24.999933 21.1550991 28.07493331 21.09189877 31.25 21.0625 C32.51328125 21.05347656 33.7765625 21.04445313 35.078125 21.03515625 C36.52445313 21.01775391 36.52445313 21.01775391 38 21 C37 23 37 23 33.984375 24.1015625 C24.49882802 26.56238993 12.46599304 26.36210561 3.46484375 22.46484375 C-3.22450559 18.48939842 -9.36370571 12.94201636 -13 6 C-13 5.01 -13 4.02 -13 3 C-11.58603098 2.49242138 -10.16868271 1.99425075 -8.75 1.5 C-7.96109375 1.2215625 -7.1721875 0.943125 -6.359375 0.65625 C-4 0 -4 0 0 0 Z " fill="#EBE9E5" transform="translate(843,470)"/>
<path d="M0 0 C0 3 0 3 -1.53125 4.82421875 C-2.1809375 5.43910156 -2.830625 6.05398438 -3.5 6.6875 C-4.1496875 7.31011719 -4.799375 7.93273437 -5.46875 8.57421875 C-5.9740625 9.04472656 -6.479375 9.51523437 -7 10 C-10.44463128 8.73756969 -13.22159636 7.27291521 -16.1875 5.125 C-27.14976424 -2.24337531 -37.04432797 -3.38555039 -50 -1 C-50 -1.66 -50 -2.32 -50 -3 C-33.98572935 -15.68135138 -15.8426661 -9.32673085 0 0 Z " fill="#ECEAE7" transform="translate(886,439)"/>
<path d="M0 0 C7.23675135 0.26315459 11.28457953 2.70244346 17 7 C17.886875 7.5775 18.77375 8.155 19.6875 8.75 C26.31056134 15.19405969 27.97361839 20.76256553 29 30 C10.85 30 -7.3 30 -26 30 C-26 29.67 -26 29.34 -26 29 C-12.14 29 1.72 29 16 29 C14.79140232 20.53981625 12.21220215 12.21220215 6 6 C4.00591923 4.65783025 2.00698975 3.3227887 0 2 C0 1.34 0 0.68 0 0 Z " fill="#E8E6E2" transform="translate(793,430)"/>
<path d="M0 0 C7.23675135 0.26315459 11.28457953 2.70244346 17 7 C17.886875 7.5775 18.77375 8.155 19.6875 8.75 C26.31056134 15.19405969 27.97361839 20.76256553 29 30 C10.85 30 -7.3 30 -26 30 C-26 29.67 -26 29.34 -26 29 C-12.14 29 1.72 29 16 29 C14.79140232 20.53981625 12.21220215 12.21220215 6 6 C4.00591923 4.65783025 2.00698975 3.3227887 0 2 C0 1.34 0 0.68 0 0 Z " fill="#E8E6E2" transform="translate(327,430)"/>
<path d="M0 0 C11.22 0 22.44 0 34 0 C33.875 14.4375 33.875 14.4375 33.81982422 18.93530273 C33.7903925 25.98040054 34.17068731 32.19724342 36 39 C36.125 42.0625 36.125 42.0625 36 44 C34.0159646 42.0159646 33.28240615 40.70414395 32.16015625 38.18359375 C31.81919922 37.41853516 31.47824219 36.65347656 31.12695312 35.86523438 C30.77568359 35.06408203 30.42441406 34.26292969 30.0625 33.4375 C29.71509766 32.66341797 29.36769531 31.88933594 29.00976562 31.09179688 C26.95626335 26.44724653 25.18738954 21.79579316 23.67211914 16.94824219 C22.96153758 14.74231345 22.96153758 14.74231345 21.375 11.8125 C19.92007382 8.83651463 19.38974781 6.27388157 19 3 C17.68 3 16.36 3 15 3 C15 2.34 15 1.68 15 1 C10.38 1 5.76 1 1 1 C1 3.64 1 6.28 1 9 C0.67 9 0.34 9 0 9 C0 6.03 0 3.06 0 0 Z " fill="#DCDAD6" transform="translate(418,428)"/>
<path d="M0 0 C1 2 1 2 0.07421875 4.86328125 C-0.38339844 6.00152344 -0.84101563 7.13976562 -1.3125 8.3125 C-1.98732422 10.00826172 -1.98732422 10.00826172 -2.67578125 11.73828125 C-3.48220359 13.72460177 -4.2924084 15.70939924 -5.109375 17.69140625 C-6.11605081 20.3008159 -6.77511487 22.94687969 -7.42578125 25.6640625 C-8.52447472 30.13357744 -9.77664125 34.56328561 -11 39 C-12.77119803 38.85866501 -14.54195287 38.71176792 -16.3125 38.5625 C-17.29863281 38.48128906 -18.28476562 38.40007813 -19.30078125 38.31640625 C-22 38 -22 38 -25 37 C-24.43158696 33.13444918 -23.33908281 30.55578513 -21.19140625 27.3046875 C-20.61342285 26.4283667 -20.03543945 25.5520459 -19.43994141 24.64916992 C-18.82038574 23.73369385 -18.20083008 22.81821777 -17.5625 21.875 C-16.93520996 20.93954346 -16.30791992 20.00408691 -15.66162109 19.0402832 C-10.95129024 12.13087742 -5.96218786 5.86602354 0 0 Z " fill="#0C0900" transform="translate(338,617)"/>
<path d="M0 0 C5.28 0 10.56 0 16 0 C15.97679687 1.98902344 15.95359375 3.97804688 15.9296875 6.02734375 C15.91576486 7.9834747 15.90191931 9.93960694 15.89013672 11.89575195 C15.87529755 13.89736377 15.84986639 15.89888812 15.82421875 17.90039062 C15.78862993 24.96477163 16.18013764 31.17551614 18 38 C18.125 41.0625 18.125 41.0625 18 43 C16.0159646 41.0159646 15.28240615 39.70414395 14.16015625 37.18359375 C13.6487207 36.03600586 13.6487207 36.03600586 13.12695312 34.86523438 C12.77568359 34.06408203 12.42441406 33.26292969 12.0625 32.4375 C11.54139648 31.27637695 11.54139648 31.27637695 11.00976562 30.09179688 C8.95451049 25.44328196 7.18425432 20.78717969 5.66601562 15.93603516 C4.9686793 13.76211045 4.9686793 13.76211045 3.4375 10.9375 C1.67271488 7.33119998 0.8771909 3.91362094 0 0 Z " fill="#EAE8E4" transform="translate(659,429)"/>
<path d="M0 0 C4.29183459 1.64557388 8.04580299 3.67400176 12 6 C11.5998363 11.27274525 9.72237853 14.24972808 6.1875 18 C5.70265137 18.52182861 5.21780273 19.04365723 4.71826172 19.58129883 C-2.14569152 26.60878405 -10.69283346 30.82653557 -20.55078125 31.09765625 C-21.79214844 31.08605469 -23.03351562 31.07445312 -24.3125 31.0625 C-25.56675781 31.05347656 -26.82101562 31.04445313 -28.11328125 31.03515625 C-29.06589844 31.02355469 -30.01851562 31.01195312 -31 31 C-27.71555391 28.81036928 -26.62475184 28.7896619 -22.8125 28.6875 C-16.04315529 28.14273743 -11.90745943 26.11230317 -7.28125 21.16015625 C-2.46203414 14.81721773 -1.25383234 7.73196609 0 0 Z " fill="#DDDBD8" transform="translate(808,466)"/>
<path d="M0 0 C4.29183459 1.64557388 8.04580299 3.67400176 12 6 C11.5998363 11.27274525 9.72237853 14.24972808 6.1875 18 C5.70265137 18.52182861 5.21780273 19.04365723 4.71826172 19.58129883 C-2.14569152 26.60878405 -10.69283346 30.82653557 -20.55078125 31.09765625 C-21.79214844 31.08605469 -23.03351563 31.07445312 -24.3125 31.0625 C-25.56675781 31.05347656 -26.82101562 31.04445313 -28.11328125 31.03515625 C-29.06589844 31.02355469 -30.01851563 31.01195312 -31 31 C-27.71555391 28.81036928 -26.62475184 28.7896619 -22.8125 28.6875 C-16.04315529 28.14273743 -11.90745943 26.11230317 -7.28125 21.16015625 C-2.46203414 14.81721773 -1.25383234 7.73196609 0 0 Z " fill="#DDDBD8" transform="translate(342,466)"/>
<path d="M0 0 C2.00720923 0.28674418 4.0085944 0.61866701 6 1 C5.593132 5.98413305 4.62978297 8.83929526 1.921875 13.15625 C0.33232294 16.33535413 0.24675161 19.4837895 0 23 C2.97 23 5.94 23 9 23 C8.67 24.32 8.34 25.64 8 27 C4.04699463 28.97650269 -0.70101268 28.56515491 -5 28 C-7.6875 25.8125 -7.6875 25.8125 -9 23 C-9.25 20.1875 -9.25 20.1875 -9 18 C-9.66 18 -10.32 18 -11 18 C-9.68493198 13.35250831 -7.83857485 10.0362944 -4.9375 6.1875 C-4.22464844 5.23230469 -3.51179687 4.27710938 -2.77734375 3.29296875 C-1 1 -1 1 0 0 Z " fill="#F1F1F1" transform="translate(628,666)"/>
<path d="M0 0 C0.640625 1.85546875 0.640625 1.85546875 1 4 C-0.6436814 5.68933922 -2.3142876 7.35259924 -4 9 C-8.59649026 17.68225938 -9.25758555 27.34861219 -10 37 C-15.61 37 -21.22 37 -27 37 C-22.65870901 30.17797131 -17.84263961 23.79940856 -12.91064453 17.40087891 C-8.49992272 11.67443358 -4.2040142 5.8805395 0 0 Z " fill="#E6E4E0" transform="translate(379,460)"/>
<path d="M0 0 C0.66 0 1.32 0 2 0 C5.20170036 5.98578764 6.13675917 10.55491584 6.0625 17.3125 C6.05347656 18.38113281 6.04445313 19.44976563 6.03515625 20.55078125 C6.02355469 21.35902344 6.01195312 22.16726563 6 23 C-0.74742227 23 -4.46690141 18.42228951 -9 14 C-7.45463516 10.69291925 -5.57205999 7.75273101 -3.5 4.75 C-2.8915625 3.85796875 -2.283125 2.9659375 -1.65625 2.046875 C-1.1096875 1.37140625 -0.563125 0.6959375 0 0 Z " fill="#1D1D1D" transform="translate(664,661)"/>
<path d="M0 0 C0.66 0.33 1.32 0.66 2 1 C4.27404634 8.59406302 5.40886556 16.09526584 5 24 C-2.07683067 22.88260568 -5.37686092 20.4032938 -10 15 C-8.37815499 11.41486894 -6.20743761 8.41007677 -3.875 5.25 C-3.15054687 4.26515625 -2.42609375 3.2803125 -1.6796875 2.265625 C-1.12539063 1.51796875 -0.57109375 0.7703125 0 0 Z " fill="#171200" transform="translate(369,661)"/>
<path d="M0 0 C0.66 0 1.32 0 2 0 C2.1953125 2.01822917 2.390625 4.03645833 2.5859375 6.0546875 C2.86374749 8.22668245 2.86374749 8.22668245 5 10 C5.165 10.680625 5.33 11.36125 5.5 12.0625 C5.665 12.701875 5.83 13.34125 6 14 C6.66 14.33 7.32 14.66 8 15 C7.27689749 19.37667309 5.18061593 21.08136929 1.8515625 23.80078125 C-0.55806837 25.36144934 -2.19763254 25.57695801 -5 25 C-6.64745596 23.35254404 -6.1709616 21.44664549 -6.1875 19.1875 C-6.20167969 18.31480469 -6.21585938 17.44210937 -6.23046875 16.54296875 C-5.98625257 13.84831221 -5.29644311 12.34227268 -4 10 C-3.67 8.824375 -3.34 7.64875 -3 6.4375 C-2 3 -2 3 0 0 Z " fill="#0D0D0D" transform="translate(793,664)"/>
<path d="M0 0 C4.62 0 9.24 0 14 0 C12.19384241 4.51539397 10.13983586 7.75196832 7.1875 11.5 C6.76146484 12.05558594 6.33542969 12.61117188 5.89648438 13.18359375 C3.1469146 16.71934913 0.22728401 19.89439097 -3 23 C-2.53309826 15.16096555 -1.71645771 7.66684446 0 0 Z " fill="#EEECE8" transform="translate(419,429)"/>
<path d="M0 0 C2.3125 0.3125 2.3125 0.3125 3.3125 1.3125 C3.7622275 6.37454907 3.61132282 10.71485436 1.3125 15.3125 C0.76509693 16.58087298 0.2236972 17.8518493 -0.3125 19.125 C-0.76625 20.176875 -1.22 21.22875 -1.6875 22.3125 C-2.6775 22.3125 -3.6675 22.3125 -4.6875 22.3125 C-7.18427543 16.69475528 -7.68018045 10.35270815 -6.6875 4.3125 C-4.48140089 1.52120408 -3.57152343 0.41529342 0 0 Z " fill="#171717" transform="translate(808.6875,653.6875)"/>
<path d="M0 0 C4.38482927 2.27071516 4.38482927 2.27071516 6 5 C7.46827507 12.12678131 5.88525172 18.90270715 2 25 C1.34 25.33 0.68 25.66 0 26 C-0.33 25.34 -0.66 24.68 -1 24 C-1.99 24.33 -2.98 24.66 -4 25 C-2 20 -2 20 -0.875 17.75 C0.37217062 13.8303209 0.15998041 10.07950054 0 6 C-1.32 5.34 -2.64 4.68 -4 4 C-3.67 3.67 -3.34 3.34 -3 3 C-5.97 2.505 -5.97 2.505 -9 2 C-9.2475 2.61875 -9.495 3.2375 -9.75 3.875 C-11.20628639 6.35068687 -12.37812506 6.95125002 -15 8 C-12.34065824 1.23076643 -7.10375206 -1.52322169 0 0 Z " fill="#D7D7D7" transform="translate(811,649)"/>
<path d="M0 0 C0.33 0 0.66 0 1 0 C1 10.89 1 21.78 1 33 C6.28 33 11.56 33 17 33 C17 35.64 17 38.28 17 41 C15.64451156 40.56661254 14.29068724 40.12802005 12.9375 39.6875 C12.18339844 39.44386719 11.42929687 39.20023437 10.65234375 38.94921875 C7.37929864 37.77786387 4.19525491 36.36939496 1 35 C1 47.87 1 60.74 1 74 C0.67 74 0.34 74 0 74 C0 49.58 0 25.16 0 0 Z " fill="#AAA9A6" transform="translate(636,413)"/>
<path d="M0 0 C0.66 0 1.32 0 2 0 C3.5078125 1.53125 3.5078125 1.53125 5.125 3.5 C5.66382813 4.1496875 6.20265625 4.799375 6.7578125 5.46875 C7.16773438 5.9740625 7.57765625 6.479375 8 7 C6.614012 10.35066172 5.2243823 11.83371851 2.125 13.6875 C1.44695313 14.10386719 0.76890625 14.52023437 0.0703125 14.94921875 C-3.62948308 16.82703952 -6.9414586 17.15642126 -11.0625 17.1875 C-12.34833984 17.20876953 -12.34833984 17.20876953 -13.66015625 17.23046875 C-16 17 -16 17 -19 15 C-18.34 14.34 -17.68 13.68 -17 13 C-16.67 13.33 -16.34 13.66 -16 14 C-12.03144043 14.5537525 -10.31546955 14.19559112 -6.875 12.0625 C-3.2565447 8.76780123 -1.67021941 4.5095924 0 0 Z " fill="#E2E0DD" transform="translate(657,480)"/>
<path d="M0 0 C0.66 0 1.32 0 2 0 C1.35956665 6.24422521 -1.22878091 11.45756182 -4 17 C-4.66 17 -5.32 17 -6 17 C-6.2578125 17.71671875 -6.515625 18.4334375 -6.78125 19.171875 C-8.0704103 22.16338801 -9.62208727 24.59227605 -11.5 27.25 C-12.1084375 28.12140625 -12.716875 28.9928125 -13.34375 29.890625 C-15 32 -15 32 -17 33 C-16.71517632 31.58194169 -16.42181856 30.16559621 -16.125 28.75 C-15.96257813 27.96109375 -15.80015625 27.1721875 -15.6328125 26.359375 C-15.00849925 24.03168856 -14.15161458 22.10968048 -13 20 C-12.34 20 -11.68 20 -11 20 C-10.85691406 18.67355469 -10.85691406 18.67355469 -10.7109375 17.3203125 C-9.93917127 13.71590977 -8.80717934 11.81219497 -6.625 8.875 C-6.01914062 8.04742188 -5.41328125 7.21984375 -4.7890625 6.3671875 C-4.19867187 5.58601562 -3.60828125 4.80484375 -3 4 C-2.47148438 3.23945312 -1.94296875 2.47890625 -1.3984375 1.6953125 C-0.93695312 1.13585937 -0.47546875 0.57640625 0 0 Z " fill="#282828" transform="translate(725,617)"/>
<path d="M0 0 C1 1 1 1 1.3125 3.25 C0.8812743 7.04478618 -0.12970067 8.48848808 -3 11 C-5.90034738 11.56172736 -7.99260964 11.33954407 -11 11 C-13 9 -13 9 -13.25 6 C-13 3 -13 3 -11 1 C-7.40929337 -0.32989135 -3.78502131 -0.14283099 0 0 Z " fill="#E4E4E4" transform="translate(780,630)"/>
<path d="M0 0 C0.33 0.33 0.66 0.66 1 1 C0.65446224 7.21967963 0.65446224 7.21967963 -1.625 9.9375 C-4.89304558 11.39952039 -7.46377389 11.32742834 -11 11 C-13 9 -13 9 -13.375 6.625 C-13 4 -13 4 -11.5625 1.6875 C-7.85697653 -0.75272277 -4.33044287 -0.53581545 0 0 Z " fill="#F3BA07" transform="translate(425,631)"/>
<path d="M0 0 C2.42288163 1.23113904 4.68477852 2.56456269 7 4 C7 4.66 7 5.32 7 6 C-0.88022232 8.57313382 -7.06378578 8.22770925 -15 6 C-15 5.34 -15 4.68 -15 4 C-5.56770435 -2.05762987 -5.56770435 -2.05762987 0 0 Z " fill="#0B0800" transform="translate(263,594)"/>
<path d="M0 0 C2.33917162 0.40330545 3.67707391 0.66205409 5.34375 2.40625 C7.31198583 4.30021278 9.17678042 5.13227003 11.6875 6.1875 C12.49574219 6.53167969 13.30398438 6.87585938 14.13671875 7.23046875 C15.05904297 7.61138672 15.05904297 7.61138672 16 8 C16 8.99 16 9.98 16 11 C12.58251778 13.10306598 9.97914475 13.40603518 6 13 C1.36764706 10.73529412 1.36764706 10.73529412 0 8 C-0.13415472 5.3276379 -0.04318541 2.67749512 0 0 Z " fill="#1A1400" transform="translate(356,680)"/>
<path d="M0 0 C0.99 0 1.98 0 3 0 C4.15608128 1.48639021 5.31145851 2.97334187 6.4609375 4.46484375 C9.17257555 7.16959947 12.38601384 7.89742795 16 9 C14.25 12.875 14.25 12.875 12 14 C8.58915179 14.2965955 6.62012782 14.35902137 3.625 12.625 C3.08875 12.08875 2.5525 11.5525 2 11 C2 10.34 2 9.68 2 9 C1.34 9 0.68 9 0 9 C0 6.03 0 3.06 0 0 Z " fill="#1A1A1A" transform="translate(652,678)"/>
<path d="M0 0 C0.99 0 1.98 0 3 0 C2.42676628 4.21135709 0.99298383 7.01294352 -1.3125 10.5625 C-1.90675781 11.49191406 -2.50101563 12.42132812 -3.11328125 13.37890625 C-4.91156804 15.87714732 -6.68620235 17.97244535 -9 20 C-9.66 20 -10.32 20 -11 20 C-11.33 20.99 -11.66 21.98 -12 23 C-15.63 23 -19.26 23 -23 23 C-23 22.67 -23 22.34 -23 22 C-19.7 21.67 -16.4 21.34 -13 21 C-14.32 20.01 -15.64 19.02 -17 18 C-15.4840625 17.5359375 -15.4840625 17.5359375 -13.9375 17.0625 C-7.01383104 14.11326981 -2.90031803 6.65367077 0 0 Z " fill="#B98E05" transform="translate(535,672)"/>
<path d="M0 0 C0.99 0.33 1.98 0.66 3 1 C0.08969095 8.78815097 -5.0208053 17.21684501 -12 22 C-15.9375 22.4375 -15.9375 22.4375 -19 22 C-19 21.67 -19 21.34 -19 21 C-17.35 21 -15.7 21 -14 21 C-14 20.34 -14 19.68 -14 19 C-15.32 18.67 -16.64 18.34 -18 18 C-15 17 -12 16 -9 15 C-7.96692894 13.22788918 -7.96692894 13.22788918 -7 11 C-5.80981649 9.07201043 -4.60022837 7.1559108 -3.375 5.25 C-2.74335937 4.26515625 -2.11171875 3.2803125 -1.4609375 2.265625 C-0.97882812 1.51796875 -0.49671875 0.7703125 0 0 Z " fill="#D7D7D7" transform="translate(882,671)"/>
<path d="M0 0 C2.13586678 3.20380017 2.23132175 4.01939967 2.125 7.6875 C2.10695313 8.49574219 2.08890625 9.30398438 2.0703125 10.13671875 C2.04710937 10.75160156 2.02390625 11.36648438 2 12 C2.94875 11.34 3.8975 10.68 4.875 10 C8 8 8 8 10 8 C10.33 7.01 10.66 6.02 11 5 C11.33 5.99 11.66 6.98 12 8 C12.66 8 13.32 8 14 8 C14.66 13.28 15.32 18.56 16 24 C15.34 24 14.68 24 14 24 C11.71428571 15.57142857 11.71428571 15.57142857 12 11 C11.113125 11.515625 10.22625 12.03125 9.3125 12.5625 C6 14 6 14 1 13 C0.67 8.71 0.34 4.42 0 0 Z " fill="#A5A5A5" transform="translate(678,671)"/>
<path d="M0 0 C0.33 0.66 0.66 1.32 1 2 C0.67 2.66 0.34 3.32 0 4 C0.66 4 1.32 4 2 4 C2 5.65 2 7.3 2 9 C1.67 8.34 1.34 7.68 1 7 C-2.3 9.64 -5.6 12.28 -9 15 C-9.66 14.67 -10.32 14.34 -11 14 C-10.67 13.34 -10.34 12.68 -10 12 C-12.31 12 -14.62 12 -17 12 C-16.67 11.34 -16.34 10.68 -16 10 C-14.453125 9.87625 -14.453125 9.87625 -12.875 9.75 C-7.93456222 8.79378624 -5.39482759 6.60084615 -2 3 C-1.34 2.01 -0.68 1.02 0 0 Z " fill="#CCCCCC" transform="translate(747,678)"/>
<path d="M0 0 C0.33 0.66 0.66 1.32 1 2 C0.67 2.66 0.34 3.32 0 4 C0.99 4 1.98 4 3 4 C2.67 5.32 2.34 6.64 2 8 C2 7.34 2 6.68 2 6 C1.44570313 6.433125 0.89140625 6.86625 0.3203125 7.3125 C-0.76636719 8.1478125 -0.76636719 8.1478125 -1.875 9 C-2.59429688 9.556875 -3.31359375 10.11375 -4.0546875 10.6875 C-6 12 -6 12 -8 12 C-8.33 11.34 -8.66 10.68 -9 10 C-10.98 10 -12.96 10 -15 10 C-15 9.67 -15 9.34 -15 9 C-14.40832031 8.84144531 -13.81664062 8.68289063 -13.20703125 8.51953125 C-7.88515536 6.94814538 -4.67292188 5.36159473 -1 1 C-0.67 0.67 -0.34 0.34 0 0 Z " fill="#C9C9C9" transform="translate(775,680)"/>
<path d="M0 0 C0.8125 1.6875 0.8125 1.6875 1 4 C-0.6436814 5.68933922 -2.3142876 7.35259924 -4 9 C-6.19047324 13.30271528 -7.41624782 17.21323211 -8 22 C-8.66 20.68 -9.32 19.36 -10 18 C-10.99 18.99 -11.98 19.98 -13 21 C-13.66 20.67 -14.32 20.34 -15 20 C-10 13.33333333 -5 6.66666667 0 0 Z " fill="#B4B2AF" transform="translate(379,460)"/>
<path d="M0 0 C15.18 0 30.36 0 46 0 C45.34 1.32 44.68 2.64 44 4 C43.505 3.01 43.505 3.01 43 2 C41.906875 2.01160156 40.81375 2.02320313 39.6875 2.03515625 C26.43558304 2.12812158 13.23510501 1.63890095 0 1 C0 0.67 0 0.34 0 0 Z " fill="#B3B3B3" transform="translate(573,606)"/>
<path d="M0 0 C0.66 0.66 1.32 1.32 2 2 C1.21625 2.763125 0.4325 3.52625 -0.375 4.3125 C-3.73963975 7.75725022 -5.28186143 9.72078604 -5.25 14.5 C-5.25515625 15.2734375 -5.2603125 16.046875 -5.265625 16.84375 C-5.12738062 19.29513844 -5.12738062 19.29513844 -3 22 C-2.01 22.66 -1.02 23.32 0 24 C-1.32 24.33 -2.64 24.66 -4 25 C-7.17397644 21.03252945 -8.6749204 18.3297632 -8.390625 13.01953125 C-7.35368518 7.65855239 -4.00965124 3.58004575 0 0 Z " fill="#7C7B79" transform="translate(835,437)"/>
<path d="M0 0 C0.66 0.66 1.32 1.32 2 2 C0.73046875 3.46484375 -0.5390625 4.9296875 -1.80859375 6.39453125 C-3.95775085 9.29060853 -4.13672823 11.96008045 -4.125 15.4375 C-4.12757813 16.19933594 -4.13015625 16.96117187 -4.1328125 17.74609375 C-4.00276015 19.95315859 -3.60856199 21.87969276 -3 24 C-3.66 24.33 -4.32 24.66 -5 25 C-7.63456664 20.40531578 -7.64480966 16.18178364 -7 11 C-5.48468483 6.55855898 -3.42232589 3.20659188 0 0 Z " fill="#767573" transform="translate(549,426)"/>
<path d="M0 0 C0.33 0.66 0.66 1.32 1 2 C1.99 2.33 2.98 2.66 4 3 C3.67 4.32 3.34 5.64 3 7 C3 6.34 3 5.68 3 5 C2.44570313 5.433125 1.89140625 5.86625 1.3203125 6.3125 C0.23363281 7.1478125 0.23363281 7.1478125 -0.875 8 C-1.95394531 8.8353125 -1.95394531 8.8353125 -3.0546875 9.6875 C-5 11 -5 11 -7 11 C-7 10.34 -7 9.68 -7 9 C-7.66 8.34 -8.32 7.68 -9 7 C-8.071875 6.401875 -7.14375 5.80375 -6.1875 5.1875 C-3.79745282 3.54727155 -1.91529747 2.1281083 0 0 Z " fill="#CDCDCD" transform="translate(643,681)"/>
<path d="M0 0 C2.74362012 2.74362012 2.33130133 4.42199614 2.375 8.25 C2.278803 13.70917975 1.88262627 16.91302497 -2 21 C-3.94470238 22.77394803 -5.91275841 24.3871315 -8 26 C-8.66 25.34 -9.32 24.68 -10 24 C-9.071875 23.443125 -8.14375 22.88625 -7.1875 22.3125 C-3.91883448 19.94111521 -2.71255878 18.58359315 -1 15 C-0.67636106 11.97676883 -0.67636106 11.97676883 -0.875 8.875 C-1.08520179 3.25560538 -1.08520179 3.25560538 0 0 Z " fill="#7C7B79" transform="translate(890,466)"/>
<path d="M0 0 C0.66 0.33 1.32 0.66 2 1 C4.13710517 7.4113155 4.39133884 16.4730047 1.8828125 22.83203125 C0.5 25 0.5 25 -2 28 C-2.66 27.34 -3.32 26.68 -4 26 C-3.35675781 25.16597656 -2.71351563 24.33195312 -2.05078125 23.47265625 C0.33830183 19.88218159 0.62526291 16.75266169 0.8125 12.4375 C0.88082031 11.15746094 0.94914063 9.87742187 1.01953125 8.55859375 C1.00279784 5.50976734 0.7399228 2.94274641 0 0 Z " fill="#7A7977" transform="translate(614,459)"/>
<path d="M0 0 C3.63 0 7.26 0 11 0 C10.67 0.66 10.34 1.32 10 2 C10.99 2.33 11.98 2.66 13 3 C12.34 4.32 11.68 5.64 11 7 C11 6.34 11 5.68 11 5 C10.01 5.33 9.02 5.66 8 6 C5.93854893 6.068991 3.87498599 6.08467727 1.8125 6.0625 C0.18248047 6.04896484 0.18248047 6.04896484 -1.48046875 6.03515625 C-2.31191406 6.02355469 -3.14335938 6.01195312 -4 6 C-4 5.67 -4 5.34 -4 5 C-0.37 5 3.26 5 7 5 C7 4.34 7 3.68 7 3 C5.02 3 3.04 3 1 3 C0.67 2.01 0.34 1.02 0 0 Z " fill="#A3A3A3" transform="translate(809,678)"/>
<path d="M0 0 C0.99 0.33 1.98 0.66 3 1 C1.35821735 5.77609498 -1.26546702 9.79382904 -4 14 C-4.33 13.34 -4.66 12.68 -5 12 C-5.66 11.67 -6.32 11.34 -7 11 C-4.69 7.37 -2.38 3.74 0 0 Z " fill="#BDBDBD" transform="translate(882,671)"/>
<path d="M0 0 C0.66 0.99 1.32 1.98 2 3 C3.32 2.34 4.64 1.68 6 1 C5.731875 1.66 5.46375 2.32 5.1875 3 C3.74294953 6.64939067 2.37128822 10.32245433 1 14 C0.34 14 -0.32 14 -1 14 C-1.02694851 12.04174127 -1.04637218 10.08337774 -1.0625 8.125 C-1.07410156 7.03445313 -1.08570313 5.94390625 -1.09765625 4.8203125 C-1 2 -1 2 0 0 Z " fill="#555555" transform="translate(701,667)"/>
<path d="M0 0 C0.66 0.33 1.32 0.66 2 1 C1.3503125 1.70576172 1.3503125 1.70576172 0.6875 2.42578125 C0.130625 3.04839844 -0.42625 3.67101562 -1 4.3125 C-1.556875 4.92738281 -2.11375 5.54226563 -2.6875 6.17578125 C-4.29201498 8.03131335 -4.29201498 8.03131335 -4 11 C-7 13 -7 13 -9.6875 12.625 C-10.450625 12.41875 -11.21375 12.2125 -12 12 C-10.85373303 9.70746606 -9.65495735 8.75120672 -7.6875 7.125 C-4.9915901 4.861767 -2.44240295 2.54009907 0 0 Z " fill="#D8A606" transform="translate(500,661)"/>
<path d="M0 0 C3 3 3 3 3.1875 5.6875 C3.125625 6.450625 3.06375 7.21375 3 8 C2.67 7.34 2.34 6.68 2 6 C1.38125 6.61875 0.7625 7.2375 0.125 7.875 C-1.25 9.25 -2.625 10.625 -4 12 C-4.99 11.34 -5.98 10.68 -7 10 C-3.535 5.05 -3.535 5.05 0 0 Z " fill="#C8C8C8" transform="translate(664,655)"/>
<path d="M0 0 C0.66 0.33 1.32 0.66 2 1 C-6.2095968 10.5344885 -6.2095968 10.5344885 -10 14 C-10.66 14 -11.32 14 -12 14 C-12 14.66 -12 15.32 -12 16 C-12.66 15.67 -13.32 15.34 -14 15 C-9.53648711 9.77674023 -4.9255107 4.79077028 0 0 Z " fill="#CD9D06" transform="translate(341,607)"/>
<path d="M0 0 C0.33 0.99 0.66 1.98 1 3 C1.99 3 2.98 3 4 3 C2.74022194 5.51955611 0.99316354 7.00683646 -1 9 C-2.35156675 10.65191491 -3.68962066 12.31522656 -5 14 C-5 13.34 -5 12.68 -5 12 C-5.66 11.67 -6.32 11.34 -7 11 C-4.69 7.37 -2.38 3.74 0 0 Z " fill="#DDAA07" transform="translate(367,657)"/>
<path d="M0 0 C1.56629708 3.01970788 2.87625164 6.08650414 4.125 9.25 C4.47820313 10.14203125 4.83140625 11.0340625 5.1953125 11.953125 C5.46085938 12.62859375 5.72640625 13.3040625 6 14 C6.66 13.34 7.32 12.68 8 12 C8 13.32 8 14.64 8 16 C7.01 16 6.02 16 5 16 C4.67 17.32 4.34 18.64 4 20 C3.35284867 17.9170757 2.70732834 15.83364461 2.0625 13.75 C1.70285156 12.58984375 1.34320312 11.4296875 0.97265625 10.234375 C0.65167969 9.16703125 0.33070313 8.0996875 0 7 C-0.22816406 6.26265625 -0.45632813 5.5253125 -0.69140625 4.765625 C-1 3 -1 3 0 0 Z " fill="#858482" transform="translate(677,469)"/>
<path d="M0 0 C1.56629708 3.01970788 2.87625164 6.08650414 4.125 9.25 C4.47820312 10.14203125 4.83140625 11.0340625 5.1953125 11.953125 C5.46085937 12.62859375 5.72640625 13.3040625 6 14 C6.66 13.34 7.32 12.68 8 12 C8 13.32 8 14.64 8 16 C7.01 16 6.02 16 5 16 C4.67 17.32 4.34 18.64 4 20 C3.35284867 17.9170757 2.70732834 15.83364461 2.0625 13.75 C1.70285156 12.58984375 1.34320313 11.4296875 0.97265625 10.234375 C0.65167969 9.16703125 0.33070313 8.0996875 0 7 C-0.22816406 6.26265625 -0.45632813 5.5253125 -0.69140625 4.765625 C-1 3 -1 3 0 0 Z " fill="#858482" transform="translate(454,469)"/>
<path d="M0 0 C0.625 1.8125 0.625 1.8125 1 4 C0.01 5.485 0.01 5.485 -1 7 C-1.66 7 -2.32 7 -3 7 C-3.33 7.99 -3.66 8.98 -4 10 C-7.63 10 -11.26 10 -15 10 C-15 9.67 -15 9.34 -15 9 C-11.7 8.67 -8.4 8.34 -5 8 C-6.32 7.01 -7.64 6.02 -9 5 C-7.88625 4.54625 -6.7725 4.0925 -5.625 3.625 C-2.03800992 2.27534014 -2.03800992 2.27534014 0 0 Z " fill="#B68C05" transform="translate(527,685)"/>
<path d="M0 0 C0.33 0.66 0.66 1.32 1 2 C0.67 2.66 0.34 3.32 0 4 C0.66 4 1.32 4 2 4 C1.8125 5.875 1.8125 5.875 1 8 C-1.5625 9.25 -1.5625 9.25 -4 10 C-4 9.34 -4 8.68 -4 8 C-5.32 8.33 -6.64 8.66 -8 9 C-7.04270084 7.87411986 -6.08412105 6.7493285 -5.125 5.625 C-4.59132813 4.99851562 -4.05765625 4.37203125 -3.5078125 3.7265625 C-2.38567993 2.44163349 -1.20628025 1.20628025 0 0 Z " fill="#BBBBBB" transform="translate(617,680)"/>
<path d="M0 0 C-5.18891571 2.47138111 -10.06448624 2.28477942 -15.72265625 2.36328125 C-19.19114802 2.70986829 -19.19114802 2.70986829 -21.43359375 5.54296875 C-22.20896484 6.75919922 -22.20896484 6.75919922 -23 8 C-22.67 5.69 -22.34 3.38 -22 1 C-20.46279297 0.90912109 -20.46279297 0.90912109 -18.89453125 0.81640625 C-17.53384305 0.73194974 -16.17316657 0.64730433 -14.8125 0.5625 C-14.13896484 0.52318359 -13.46542969 0.48386719 -12.77148438 0.44335938 C-9.83630619 0.25722612 -7.01845693 0.00385254 -4.13671875 -0.59765625 C-2 -1 -2 -1 0 0 Z " fill="#565656" transform="translate(595,652)"/>
<path d="M0 0 C0 3 0 3 -1.5 4.6875 C-1.995 5.120625 -2.49 5.55375 -3 6 C-2.67 6.66 -2.34 7.32 -2 8 C-3.60379341 8.05416188 -5.20811406 8.09286638 -6.8125 8.125 C-7.70582031 8.14820313 -8.59914063 8.17140625 -9.51953125 8.1953125 C-12 8 -12 8 -15 6 C-14.34 5.34 -13.68 4.68 -13 4 C-12.67 4.33 -12.34 4.66 -12 5 C-8.99948871 5.41867599 -6.87475307 5.564739 -4.26953125 3.8828125 C-2.79717534 2.64477451 -1.39301441 1.32668039 0 0 Z " fill="#B6B4B1" transform="translate(653,489)"/>
<path d="M0 0 C0.33 0.66 0.66 1.32 1 2 C1.66 2 2.32 2 3 2 C3 3.98 3 5.96 3 8 C2.34 6.68 1.68 5.36 1 4 C0.46375 4.515625 -0.0725 5.03125 -0.625 5.5625 C-3 7 -3 7 -6.25 6.6875 C-7.1575 6.460625 -8.065 6.23375 -9 6 C-8.67 5.34 -8.34 4.68 -8 4 C-7.401875 3.855625 -6.80375 3.71125 -6.1875 3.5625 C-3.58775458 2.89399403 -2.05662055 1.68936688 0 0 Z " fill="#D0A006" transform="translate(391,680)"/>
<path d="M0 0 C1.670625 0.061875 1.670625 0.061875 3.375 0.125 C3.43558594 0.82367187 3.49617187 1.52234375 3.55859375 2.2421875 C3.64238281 3.15226563 3.72617187 4.06234375 3.8125 5 C3.89371094 5.90492188 3.97492187 6.80984375 4.05859375 7.7421875 C4.24489285 10.13610861 4.24489285 10.13610861 5.375 12.125 C4.715 12.125 4.055 12.125 3.375 12.125 C3.375 12.785 3.375 13.445 3.375 14.125 C2.715 14.125 2.055 14.125 1.375 14.125 C1.705 10.165 2.035 6.205 2.375 2.125 C-0.265 2.125 -2.905 2.125 -5.625 2.125 C-3.625 0.125 -3.625 0.125 0 0 Z " fill="#8D8D8D" transform="translate(833.625,657.875)"/>
<path d="M0 0 C0.66 0.66 1.32 1.32 2 2 C-1.63 2 -5.26 2 -9 2 C-9.66 3.32 -10.32 4.64 -11 6 C-13.125 7.25 -13.125 7.25 -15 8 C-12.10979988 0.64312697 -7.26452104 -0.71454305 0 0 Z " fill="#B6B6B6" transform="translate(811,649)"/>
<path d="M0 0 C0 0.33 0 0.66 0 1 C-1.670625 1.2165625 -1.670625 1.2165625 -3.375 1.4375 C-6.82142047 1.78372035 -6.82142047 1.78372035 -9 3 C-10.9414342 3 -12.88299216 2.99714088 -14.82421875 2.96875 C-17.95012964 3.01364639 -20.91877596 3.48646266 -24 4 C-16.51335289 -0.99109807 -8.71558578 -0.21758744 0 0 Z " fill="#614A03" transform="translate(269,580)"/>
<path d="M0 0 C0.94944554 3.50338045 1.1969692 5.48889033 0 9 C-1.86355247 11.7797991 -3.89202257 14.4020951 -6 17 C-6.99 16.67 -7.98 16.34 -9 16 C-8.2575 15.401875 -7.515 14.80375 -6.75 14.1875 C-2.84034012 10.35581054 -1.59915112 5.10120275 0 0 Z " fill="#A2A19E" transform="translate(416,445)"/>
<path d="M0 0 C0.33 0.66 0.66 1.32 1 2 C-2.80411834 5.91939465 -6.81576108 9.49102731 -11 13 C-11 10.8125 -11 10.8125 -10 8 C-8.05234047 6.53176435 -6.05454368 5.37069694 -3.91015625 4.2109375 C-1.70155745 2.99188612 -1.70155745 2.99188612 0 0 Z " fill="#B9B9B9" transform="translate(656,666)"/>
<path d="M0 0 C1 2 1 2 0.44140625 4.1640625 C0.15136719 4.97617187 -0.13867188 5.78828125 -0.4375 6.625 C-0.72496094 7.44226563 -1.01242187 8.25953125 -1.30859375 9.1015625 C-1.65083984 10.04128906 -1.65083984 10.04128906 -2 11 C-2.66 10.01 -3.32 9.02 -4 8 C-4.99 8.33 -5.98 8.66 -7 9 C-5.44499019 5.18315774 -2.96404505 2.80804268 0 0 Z " fill="#403102" transform="translate(338,617)"/>
<path d="M0 0 C2.97 1.98 2.97 1.98 6 4 C5.67 5.32 5.34 6.64 5 8 C1.63279613 6.60667426 0.0140476 5.0210714 -2 2 C-1.34 2 -0.68 2 0 2 C0 1.34 0 0.68 0 0 Z " fill="#D3D3D3" transform="translate(657,677)"/>
<path d="M0 0 C0.66 0.33 1.32 0.66 2 1 C0.92492371 2.29854721 -0.16043736 3.58858361 -1.25 4.875 C-1.85328125 5.59429688 -2.4565625 6.31359375 -3.078125 7.0546875 C-4.97087634 8.97052118 -6.53657727 9.96449045 -9 11 C-7.59155282 7.78475695 -5.89655214 5.67816132 -3.375 3.25 C-2.74335938 2.63640625 -2.11171875 2.0228125 -1.4609375 1.390625 C-0.73777344 0.70226562 -0.73777344 0.70226562 0 0 Z " fill="#372A01" transform="translate(499,668)"/>
<path d="M0 0 C6.11090483 -0.09945415 11.97403427 -0.0712828 18 1 C18 1.33 18 1.66 18 2 C16.96359375 1.97679687 15.9271875 1.95359375 14.859375 1.9296875 C13.48959056 1.91092333 12.1197983 1.89272382 10.75 1.875 C9.72712891 1.84986328 9.72712891 1.84986328 8.68359375 1.82421875 C4.9391765 1.78786518 2.17647273 1.92055651 -1 4 C-0.67 2.68 -0.34 1.36 0 0 Z " fill="#372A01" transform="translate(307,661)"/>
<path d="M0 0 C1.0209375 0.2165625 1.0209375 0.2165625 2.0625 0.4375 C1.44375 0.52 0.825 0.6025 0.1875 0.6875 C-2.07703908 1.21010299 -2.07703908 1.21010299 -2.8125 3.1875 C-4.47850513 6.51951026 -7.01666393 8.15162829 -9.9375 10.4375 C-9.9375 6.77737329 -9.24560988 6.28817891 -6.75 3.75 C-3.39687236 0.50591716 -3.39687236 0.50591716 0 0 Z " fill="#C3C3C3" transform="translate(726.9375,605.5625)"/>
<path d="M0 0 C1.5625 1.125 1.5625 1.125 3 3 C2.6875 6.1875 2.6875 6.1875 2 9 C1.34 8.34 0.68 7.68 0 7 C-0.99 7.495 -0.99 7.495 -2 8 C-2 7.01 -2 6.02 -2 5 C-2.66 4.67 -3.32 4.34 -4 4 C-2.68 2.68 -1.36 1.36 0 0 Z " fill="#C39606" transform="translate(471,683)"/>
<path d="M0 0 C0.33 0 0.66 0 1 0 C1.33 5.28 1.66 10.56 2 16 C1.34 15.67 0.68 15.34 0 15 C0 12.36 0 9.72 0 7 C-0.66 7 -1.32 7 -2 7 C-2 6.34 -2 5.68 -2 5 C-3.65 5 -5.3 5 -7 5 C-7 4.67 -7 4.34 -7 4 C-4.69 4 -2.38 4 0 4 C0 2.68 0 1.36 0 0 Z " fill="#A6A6A6" transform="translate(795,657)"/>
<path d="M0 0 C0.66 0.33 1.32 0.66 2 1 C1.34 2.65 0.68 4.3 0 6 C-0.99 6 -1.98 6 -3 6 C-2.67 5.34 -2.34 4.68 -2 4 C-4.31 4 -6.62 4 -9 4 C-8.67 3.34 -8.34 2.68 -8 2 C-5.67284 1.62599214 -3.33882138 1.29235267 -1 1 C-0.67 0.67 -0.34 0.34 0 0 Z " fill="#C1C1C1" transform="translate(739,686)"/>
<path d="M0 0 C0.70125 0.12375 1.4025 0.2475 2.125 0.375 C1.50625 0.4575 0.8875 0.54 0.25 0.625 C-2.57140174 1.62078885 -2.59427958 2.73822266 -3.875 5.375 C-6.5 7.625 -6.5 7.625 -8.875 9.375 C-8.875 5.91582041 -8.50560573 5.55231818 -6.1875 3.1875 C-3.90744262 0.99409563 -3.23055063 0.42137617 0 0 Z " fill="#434343" transform="translate(719.875,662.625)"/>
<path d="M0 0 C0.66 0.33 1.32 0.66 2 1 C0.90344712 2.31886772 -0.20253423 3.62990057 -1.3125 4.9375 C-1.92738281 5.66839844 -2.54226563 6.39929688 -3.17578125 7.15234375 C-5 9 -5 9 -8 10 C-6.34908222 5.70761377 -3.26245434 3.1206085 0 0 Z " fill="#382A01" transform="translate(446,658)"/>
<path d="M0 0 C0 0.33 0 0.66 0 1 C-2.64 1 -5.28 1 -8 1 C-8.4021875 1.86625 -8.4021875 1.86625 -8.8125 2.75 C-10.01719859 5.0325868 -11.40798115 6.9737942 -13 9 C-13.34538204 5.89156165 -13.23301458 4.37484955 -11.5625 1.6875 C-7.80766223 -0.78519805 -4.37248747 -0.33634519 0 0 Z " fill="#C89A06" transform="translate(425,631)"/>
<path d="M0 0 C0 0.99 0 1.98 0 3 C-2.72499107 5.57360268 -5.15873472 7.74391565 -9 8 C-9.99 7.34 -10.98 6.68 -12 6 C-10.7625 5.566875 -9.525 5.13375 -8.25 4.6875 C-5.08403441 3.50868303 -2.56878575 2.24768753 0 0 Z " fill="#BDBBB8" transform="translate(610,486)"/>
<path d="M0 0 C0.66 0 1.32 0 2 0 C2.66 3.63 3.32 7.26 4 11 C3.01 11.495 3.01 11.495 2 12 C-0.60018816 8.09971775 -0.15085514 4.52565431 0 0 Z " fill="#7C7B79" transform="translate(542,439)"/>
<path d="M0 0 C0.66 0.33 1.32 0.66 2 1 C0.90033225 2.29549899 -0.20491801 3.58626071 -1.3125 4.875 C-1.92738281 5.59429688 -2.54226563 6.31359375 -3.17578125 7.0546875 C-5 9 -5 9 -8 11 C-6.63629701 8.00779732 -5.05091917 5.70973471 -2.875 3.25 C-2.33617187 2.63640625 -1.79734375 2.0228125 -1.2421875 1.390625 C-0.62730469 0.70226562 -0.62730469 0.70226562 0 0 Z " fill="#474747" transform="translate(843,669)"/>
<path d="M0 0 C-1.5830577 4.2742558 -4.50568404 6.26531794 -8 9 C-7.53918323 4.85264908 -4.48412936 0 0 0 Z " fill="#CECECE" transform="translate(847,661)"/>
<path d="M0 0 C0.66 0.33 1.32 0.66 2 1 C1.07038578 2.15224028 0.1309875 3.29659176 -0.8125 4.4375 C-1.59560547 5.39462891 -1.59560547 5.39462891 -2.39453125 6.37109375 C-4 8 -4 8 -7 9 C-5.44499019 5.18315774 -2.96404505 2.80804268 0 0 Z " fill="#383838" transform="translate(617,657)"/>
<path d="M0 0 C0.33 0.99 0.66 1.98 1 3 C1.99 3 2.98 3 4 3 C2.768606 5.46278801 1.21935077 6.42497687 -1 8 C-1.66 7.67 -2.32 7.34 -3 7 C-1.125 2.25 -1.125 2.25 0 0 Z " fill="#BC9105" transform="translate(367,657)"/>
<path d="M0 0 C1.5 1.1875 1.5 1.1875 3 3 C3.1875 5.6875 3.1875 5.6875 3 8 C2.67 7.34 2.34 6.68 2 6 C0.68 6 -0.64 6 -2 6 C-2 3 -2 3 0 0 Z " fill="#AAAAAA" transform="translate(664,655)"/>
<path d="M0 0 C0.66 0 1.32 0 2 0 C1.67 1.98 1.34 3.96 1 6 C0.01 6 -0.98 6 -2 6 C-2.99 6.66 -3.98 7.32 -5 8 C-3.63055898 5.05043472 -2.12169591 2.47531189 0 0 Z " fill="#656565" transform="translate(725,617)"/>
<path d="M0 0 C0.66 0.33 1.32 0.66 2 1 C2 1.99 2 2.98 2 4 C-2.22222222 7 -2.22222222 7 -5 7 C-3.70700306 4.11562221 -2.34058637 2.12780579 0 0 Z " fill="#CAC8C5" transform="translate(555,420)"/>
<path d="M0 0 C0.66 0.33 1.32 0.66 2 1 C1.375 2.9375 1.375 2.9375 0 5 C-3.125 5.75 -3.125 5.75 -6 6 C-6 5.34 -6 4.68 -6 4 C-4.03852126 2.61061923 -2.03833424 1.2739589 0 0 Z " fill="#D7D5D2" transform="translate(842,432)"/>
<path d="M0 0 C0.66 0.99 1.32 1.98 2 3 C1.01 3.99 0.02 4.98 -1 6 C-1 5.34 -1 4.68 -1 4 C-2.32 4.33 -3.64 4.66 -5 5 C-3.35 3.35 -1.7 1.7 0 0 Z " fill="#CC9C06" transform="translate(443,685)"/>
<path d="M0 0 C0.33 0.99 0.66 1.98 1 3 C-0.4375 5.1875 -0.4375 5.1875 -2 7 C-2.99 6.67 -3.98 6.34 -5 6 C-3.35 4.02 -1.7 2.04 0 0 Z " fill="#E8B207" transform="translate(531,682)"/>
<path d="M0 0 C0.66 0.33 1.32 0.66 2 1 C1.34 2.32 0.68 3.64 0 5 C-2.31 5 -4.62 5 -7 5 C-4.702779 3.25728062 -2.40133271 1.60088848 0 0 Z " fill="#C5C3C0" transform="translate(796,491)"/>
<path d="M0 0 C0.66 0.33 1.32 0.66 2 1 C1.34 2.32 0.68 3.64 0 5 C-2.31 5 -4.62 5 -7 5 C-4.702779 3.25728062 -2.40133271 1.60088848 0 0 Z " fill="#C5C3C0" transform="translate(330,491)"/>
<path d="M0 0 C0.75 1.5625 0.75 1.5625 1 4 C-0.13084437 6.50286409 -1.52139516 8.67007722 -3 11 C-3.66 10.34 -4.32 9.68 -5 9 C-4.360625 8.071875 -3.72125 7.14375 -3.0625 6.1875 C-0.91377907 3.15780057 -0.91377907 3.15780057 0 0 Z " fill="#8B8A88" transform="translate(615,476)"/>
<path d="M0 0 C1.32 0 2.64 0 4 0 C3.6875 1.9375 3.6875 1.9375 3 4 C2.01 4.33 1.02 4.66 0 5 C-0.5625 3.0625 -0.5625 3.0625 -1 1 C-0.67 0.67 -0.34 0.34 0 0 Z " fill="#E1AD07" transform="translate(465,688)"/>
</svg>
